<?xml version="1.0" encoding="UTF-8"?>
<svg version="1.1" xmlns="http://www.w3.org/2000/svg" width="1307" height="803">
<path d="M0 0 C8.62021296 7.45531932 8.42967192 25.43550482 10.01733398 36.18505859 C10.30737218 38.11877751 10.59792295 40.05241961 10.88893986 41.98599148 C11.68135527 47.26123699 12.46641376 52.53755403 13.25012589 57.8140986 C14.09343674 63.4835873 14.9433431 69.15208777 15.7923584 74.82072449 C17.44244072 85.84530337 19.08603583 96.87084026 20.72754323 107.89669877 C22.05566035 116.8159103 23.38702202 125.73463253 24.7204895 134.65304565 C32.83914654 188.95287844 40.91077069 243.25938914 48.87654948 297.58188343 C49.53468912 302.06927712 50.19333068 306.55659708 50.85197514 311.0439167 C51.65230883 316.49685039 52.45232298 321.94983094 53.25219727 327.40283203 C53.48482008 328.98869094 53.48482008 328.98869094 53.72214234 330.60658741 C55.55242185 343.08660029 57.37647513 355.56749633 59.1914717 368.04974121 C60.32061526 375.8135987 61.45462775 383.57673459 62.59238088 391.33933502 C63.36718101 396.62784246 64.13571942 401.91720408 64.89905256 407.20737815 C65.36207691 410.40522626 65.83134948 413.60213375 66.30243981 416.79880261 C66.5155154 418.25328189 66.72605396 419.70813572 66.93371761 421.16339755 C68.05387397 429.00348706 69.41371889 436.50114915 72 444 C81.43210195 421.03106524 90.57196465 397.96057241 99.47583008 374.78149414 C106.08749437 357.5920131 106.08749437 357.5920131 109.3671875 349.76171875 C109.80788574 348.70815186 110.24858398 347.65458496 110.70263672 346.5690918 C113.02971016 341.96092585 115.91021903 340.15487895 120.375 337.6875 C126.72093812 336.02546859 131.50718069 336.58923282 137.171875 339.72265625 C140.99042377 342.39074482 143.51418162 345.54254487 145 350 C145.76479552 357.3943654 144.30267732 363.18041117 141.51171875 369.97265625 C140.95712479 371.38174004 140.95712479 371.38174004 140.3913269 372.81929016 C139.17222469 375.90676716 137.92982256 378.98430175 136.6875 382.0625 C135.81909335 384.2507558 134.95250775 386.43973507 134.08764648 388.62939453 C132.29099046 393.17419432 130.48655801 397.71579043 128.67675781 402.25537109 C124.95818558 411.60131573 121.3421968 420.98658625 117.72219849 430.37103271 C109.80899511 450.86860545 101.79364866 471.32624954 93.76000977 491.77685547 C93.36428268 492.78458008 92.9685556 493.79230469 92.56083679 494.83056641 C91.79039755 496.79122784 91.01902886 498.75152434 90.24665833 500.71142578 C88.46909176 505.22747544 86.70972195 509.74863011 84.99658203 514.28955078 C84.683078 515.11479752 84.36957397 515.94004425 84.04656982 516.79029846 C83.47008298 518.31144606 82.89945032 519.83483255 82.33624268 521.36094666 C79.83097351 527.95069896 76.59775142 532.6663234 70.6875 536.5 C65.16846221 537.52679773 60.03523864 537.69121312 54.6875 535.875 C48.61554406 531.63875167 45.70625439 526.64336775 44.32283878 519.50671577 C44.11246325 518.13702464 43.90878423 516.7662945 43.71046448 515.39480591 C43.59559268 514.63498852 43.48072087 513.87517113 43.36236811 513.09232897 C42.9786768 510.54432147 42.60375086 507.99510209 42.22875977 505.44580078 C41.95405734 503.60934682 41.67881471 501.7729736 41.40307522 499.93667507 C40.65042271 494.91385522 39.90537586 489.8899325 39.16158104 484.86579442 C38.36818056 479.5157375 37.56773085 474.16673526 36.76806641 468.81761169 C35.40192721 459.6727823 34.0401457 450.52731292 32.681427 441.38137817 C30.74475713 428.34521763 28.80141858 415.31005855 26.8561219 402.27518284 C24.04170572 383.41610043 21.23080424 364.55649717 18.42314827 345.6964072 C14.86493162 321.79481515 11.2969649 297.89469981 7.71875 273.99609375 C7.54565784 272.83995858 7.54565784 272.83995858 7.36906886 271.66046715 C6.37835591 265.04321807 5.38752028 258.42598737 4.39642239 251.80879593 C2.28439579 237.70746827 0.17522985 223.60571327 -1.93359375 209.50390625 C-2.25398402 207.36160733 -2.57437773 205.21930892 -2.89477539 203.07701111 C-3.59654728 198.38467861 -4.29828627 193.69234119 -5 189 C-5.33 189 -5.66 189 -6 189 C-9.33657784 234.17503232 -12.60948194 279.35435968 -15.8125 324.5390625 C-15.89530385 325.7071167 -15.97810771 326.87517089 -16.06342077 328.07862067 C-16.83879823 339.01709413 -17.61383234 349.95559191 -18.38862419 360.89410686 C-20.79792198 394.90425614 -23.22222652 428.91333873 -25.64627075 462.92243958 C-25.9295634 466.8971938 -26.21285005 470.87194846 -26.49612927 474.84670365 C-26.68407912 477.48384544 -26.87203798 480.12098659 -27.0600059 482.75812709 C-28.32584268 500.51857082 -29.58788162 518.27928015 -30.84688139 536.04020977 C-32.39122823 557.82625739 -33.94333673 579.61172763 -35.50951767 601.39621735 C-36.34033297 612.95567439 -37.16425175 624.51557676 -37.97874916 636.0761953 C-38.5294292 643.88271154 -39.08888673 651.68856652 -39.65550911 659.49394172 C-39.97892258 663.95245997 -40.29849067 668.41116339 -40.6074791 672.87070656 C-40.88846875 676.92496636 -41.18055312 680.97826767 -41.48154068 685.0310905 C-41.58792794 686.49000325 -41.69025761 687.94921894 -41.78805542 689.40873265 C-42.92057858 706.23467497 -42.92057858 706.23467497 -47.68359375 712.05859375 C-48.26238281 712.51363281 -48.84117187 712.96867188 -49.4375 713.4375 C-50.01371094 713.91058594 -50.58992188 714.38367188 -51.18359375 714.87109375 C-55.64720639 717.645253 -60.91034867 717.47077054 -66 717 C-71.50388772 715.16537076 -75.22473097 712.03856276 -78 707 C-78.79964733 703.82941818 -78.79964733 703.82941818 -79.44242859 699.96063232 C-79.62539145 698.86112783 -79.62539145 698.86112783 -79.81205052 697.73941112 C-81.71972698 685.95152467 -83.19045674 674.0944633 -84.73364258 662.25488281 C-85.09798304 659.47803589 -85.46346731 656.70133979 -85.8289032 653.92463684 C-86.6121304 647.96887827 -87.39263547 642.01276823 -88.17124367 636.05640411 C-89.3033579 627.3958244 -90.43982013 618.73581938 -91.5772837 610.07594082 C-93.43179485 595.95611907 -95.28301908 581.83586847 -97.13208008 567.71533203 C-98.91215109 554.12170998 -100.69349872 540.5282564 -102.47680664 526.93505859 C-102.58613188 526.10172631 -102.69545713 525.26839403 -102.80809525 524.40980926 C-103.90149628 516.07553966 -104.9950922 507.74129564 -106.08868063 499.40705062 C-106.62527183 495.31765401 -107.16184294 491.22825476 -107.69841003 487.13885498 C-107.80353093 486.33770731 -107.90865182 485.53655964 -108.0169582 484.71113476 C-109.35077714 474.54562567 -110.68364907 464.37999306 -112.01535124 454.21420646 C-112.69029215 449.06192442 -113.36554919 443.90968384 -114.04087834 438.75745268 C-114.50230367 435.23695268 -114.96354587 431.71642889 -115.42436087 428.19584894 C-117.22004654 414.47770862 -119.0249579 400.76102123 -120.87924194 387.05065918 C-121.02379851 385.97908971 -121.16835508 384.90752023 -121.31729215 383.80347896 C-121.97812976 378.905599 -122.64243202 374.00825588 -123.31477833 369.11194229 C-123.54222015 367.43253949 -123.76951347 365.75311656 -123.99662781 364.07366943 C-124.15155128 362.96329638 -124.15155128 362.96329638 -124.30960453 361.83049154 C-124.85051223 357.7963022 -125 354.1096946 -125 350 C-238.19 350 -351.38 350 -468 350 C-469.485 354.95 -469.485 354.95 -471 360 C-472.17240431 362.65155743 -473.35298343 365.18859981 -474.6875 367.75 C-475.03635254 368.43046387 -475.38520508 369.11092773 -475.74462891 369.81201172 C-476.81568036 371.8824547 -477.90352422 373.94292152 -479 376 C-479.32661621 376.61456055 -479.65323242 377.22912109 -479.98974609 377.86230469 C-504.59970872 423.67566004 -547.79383582 459.17410614 -597.4375 474.5 C-612.63338859 479.02249288 -627.85694472 482.07751227 -643.75 482.23828125 C-644.55761276 482.2480751 -645.36522552 482.25786896 -646.1973114 482.26795959 C-664.45483458 482.44369251 -682.12681412 482.20034352 -700 478 C-701.35182373 477.68651611 -701.35182373 477.68651611 -702.73095703 477.36669922 C-752.46879342 465.40488845 -797.62570394 432.76752914 -824.63525391 389.34667969 C-856.6803895 336.26095792 -863.87811209 271.19465491 -849.80224609 211.16113281 C-840.73873608 175.44770383 -821.98704835 146.57324201 -797.3203125 119.54296875 C-795.69832348 117.76533432 -794.08999545 115.97518179 -792.4921875 114.17578125 C-788.22137556 109.38907612 -783.94677977 104.84819016 -779.03125 100.72265625 C-776.78697288 98.81933661 -774.65298903 96.81836812 -772.5 94.8125 C-729.82786211 56.54355692 -675.04260698 36.7610839 -618 39 C-606.47543578 39.89164074 -594.70209078 43.43222207 -586.8125 52.25 C-583.24847943 56.72453677 -582.5191939 59.80705639 -582.6015625 65.5234375 C-583 68 -583 68 -585.4375 70.9375 C-593.90644378 76.48419817 -603.58757597 76.66300889 -613.35025024 77.2789917 C-627.45363383 78.18690259 -641.30288935 79.3307241 -655 83 C-655.69206543 83.18288574 -656.38413086 83.36577148 -657.09716797 83.55419922 C-678.15579192 89.27595499 -698.07179551 99.22379192 -715 113 C-715.84691406 113.68666748 -715.84691406 113.68666748 -716.7109375 114.38720703 C-730.65148368 125.76716708 -744.57975348 139.28096353 -752 156 C-752.40753493 160.15685632 -752.35273568 161.47089647 -750 165 C-740.05738179 167.89993031 -730.28036096 161.9037023 -721.5 157.6875 C-714.12623512 154.23744212 -706.77305046 150.93981708 -699.0625 148.3125 C-698.37285156 148.06910889 -697.68320312 147.82571777 -696.97265625 147.57495117 C-690.60834498 145.50919145 -684.51311345 144.72139842 -678.4375 147.8125 C-675.7986079 150.39979365 -675.50209379 152.74777134 -675.3125 156.375 C-675.67911192 161.75197485 -676.90410313 165.40280514 -681 169 C-685.48961937 172.30331119 -690.21086845 175.1609783 -695 178 C-695.77520996 178.46116211 -696.55041992 178.92232422 -697.34912109 179.39746094 C-700.86456965 181.48495357 -704.38454164 183.56460815 -707.90893555 185.63696289 C-771.56407672 220.87427601 -771.56407672 220.87427601 -808 281 C-808.3196875 282.13308594 -808.639375 283.26617187 -808.96875 284.43359375 C-812.8906557 300.7203966 -812.53579501 318.89517319 -808 335 C-807.50693359 336.80404297 -807.50693359 336.80404297 -807.00390625 338.64453125 C-800.18830811 361.1666635 -786.28836255 380.3461202 -770 397 C-768.91525391 398.17755859 -768.91525391 398.17755859 -767.80859375 399.37890625 C-740.7564296 428.07370655 -699.51776704 443.81235964 -660.578125 445.18359375 C-618.92676515 446.08728999 -579.40024724 431.16866721 -548 404 C-547.14792969 403.28199219 -546.29585937 402.56398438 -545.41796875 401.82421875 C-539.17624932 396.42623406 -534.03615914 390.52209302 -529 384 C-528.27039063 383.08605469 -527.54078125 382.17210937 -526.7890625 381.23046875 C-503.50720831 351.37251188 -492.87614685 314.72525651 -492.84228516 277.16577148 C-492.83720444 275.92055725 -492.83212372 274.67534302 -492.82688904 273.39239502 C-492.81623696 270.70408693 -492.80722181 268.01582871 -492.80076981 265.32751274 C-492.78999465 261.06897349 -492.76972838 256.81051099 -492.74765015 252.55201721 C-492.68603387 240.44950867 -492.63170418 228.34700769 -492.59863281 216.24438477 C-492.58024622 209.5446283 -492.55126982 202.84500373 -492.5106281 196.14534432 C-492.48964528 192.60892688 -492.4741131 189.07267489 -492.47182083 185.53619194 C-492.46926069 181.59226786 -492.44373372 177.64866859 -492.41650391 173.70483398 C-492.41951004 172.54665665 -492.42251617 171.38847931 -492.4256134 170.19520569 C-492.35152064 162.95927195 -491.98362785 155.66806809 -487.24609375 149.84375 C-486.64925781 149.4003125 -486.05242187 148.956875 -485.4375 148.5 C-484.83808594 148.0359375 -484.23867188 147.571875 -483.62109375 147.09375 C-478.65994417 143.74646835 -472.75999969 144.29345798 -467 145 C-461.25125146 147.56387088 -458.38136472 151.24155254 -456 157 C-455.55037786 160.11172647 -455.51205985 163.19525066 -455.48828125 166.3359375 C-455.46135445 167.65496567 -455.46135445 167.65496567 -455.43388367 169.00064087 C-455.37997188 171.79204605 -455.34594671 174.58328211 -455.3125 177.375 C-455.27931 179.27476302 -455.24481879 181.17450377 -455.20898438 183.07421875 C-455.12425651 187.71602344 -455.05735439 192.35777965 -455 197 C-454.31760254 196.10611572 -453.63520508 195.21223145 -452.93212891 194.29125977 C-447.12811386 186.75436212 -441.15562028 179.63161176 -434.375 172.9375 C-433.08867676 171.66253662 -433.08867676 171.66253662 -431.77636719 170.36181641 C-393.37816246 132.93526924 -342.07225345 114.27761874 -288.87109375 114.8515625 C-238.94820993 115.84013446 -191.80405282 136.61665552 -156 171 C-155.43104004 171.54172852 -154.86208008 172.08345703 -154.27587891 172.64160156 C-136.70588689 189.44851553 -123.15358967 208.90369206 -113 231 C-112.45601562 232.18335938 -111.91203125 233.36671875 -111.3515625 234.5859375 C-101.24866188 257.40721047 -96.79258888 280.92460816 -93.86250305 305.57641411 C-93.38662801 309.57503325 -92.89718931 313.57177979 -92.40270996 317.56813049 C-92.31596716 318.26923972 -92.22922437 318.97034894 -92.139853 319.6927039 C-91.96067906 321.14029602 -91.78143193 322.58787907 -91.60211468 324.03545344 C-91.32500931 326.27567665 -91.04924567 328.51606212 -90.77365875 330.75647259 C-88.54697183 348.82298908 -86.156877 366.86804065 -83.77207184 384.9142375 C-83.16273402 389.52706626 -82.55485379 394.1400871 -81.94677734 398.75308228 C-80.84082868 407.1410486 -79.7333933 415.52881792 -78.62537575 423.91651118 C-77.35192261 433.55714693 -76.08028376 443.19802178 -74.80874348 452.83890998 C-72.20774559 472.55952654 -69.60445966 492.27984036 -67 512 C-65.00424119 490.87584929 -63.24506896 469.74726884 -61.75470281 448.58111179 C-61.48295527 444.73248696 -61.20733714 440.88413871 -60.93225098 437.03575134 C-60.45715802 430.38237072 -59.98435897 423.72883049 -59.51319504 417.07517052 C-58.82244015 407.32082722 -58.12778322 397.56676449 -57.43229289 387.81275783 C-56.29046304 371.79779057 -55.15136665 355.78263017 -54.01416016 339.76733398 C-52.46961871 318.01570303 -50.92254447 296.264253 -49.37425178 274.51288876 C-49.17581665 271.72510667 -48.97739603 268.93732355 -48.77897882 266.14954019 C-46.58388136 235.30867082 -44.38651811 204.46796305 -42.18528366 173.62753105 C-42.12384348 172.76670482 -42.0624033 171.90587859 -41.9991013 171.01896671 C-41.93788597 170.16129116 -41.87667064 169.30361561 -41.8136003 168.41994989 C-41.72212315 167.1382779 -41.72212315 167.1382779 -41.62879798 165.83071356 C-41.50630664 164.11452536 -41.38381174 162.39833741 -41.26131323 160.68214972 C-40.43381088 149.08842003 -39.60812156 137.49456266 -38.78383435 125.90060396 C-37.77103052 111.65525447 -36.75463219 97.41016979 -35.73142922 83.16556317 C-35.24752097 76.42747423 -34.76549703 69.68926457 -34.28840256 62.95068932 C-33.85421258 56.81879773 -33.41478851 50.68730478 -32.9711318 44.55609107 C-32.81268526 42.35378913 -32.65613988 40.15134937 -32.50172281 37.94876122 C-30.34111641 7.17235632 -30.34111641 7.17235632 -25 0 C-17.0928781 -5.93034143 -7.98280524 -5.35150195 0 0 Z M-403.671875 194.82421875 C-405.48568315 196.51933811 -407.3022971 198.09246535 -409.25 199.625 C-437.10921443 223.68523065 -452.52362884 263.0980253 -456.83903503 298.76644897 C-457.04344894 301.60289774 -457.03687411 304.41673051 -457.0246582 307.26025391 C-457.02109818 308.33642975 -457.01753815 309.41260559 -457.01387024 310.52139282 C-457.00929306 311.33933319 -457.00471588 312.15727356 -457 313 C-416.60787498 313.17329217 -376.21571996 313.3359453 -335.82349535 313.48431293 C-331.05575117 313.50183481 -326.28800732 313.51944484 -321.52026367 313.53710938 C-320.57108435 313.54062461 -319.62190502 313.54413985 -318.64396269 313.5477616 C-303.27126588 313.60490387 -287.89860682 313.66918944 -272.52594983 313.736111 C-256.75435746 313.80461038 -240.98274898 313.86544236 -225.21109921 313.91914403 C-215.47771509 313.95252777 -205.74439301 313.991905 -196.01106507 314.03892837 C-189.33823234 314.07059329 -182.66539855 314.09481624 -175.99251603 314.11317255 C-172.14157134 314.12398626 -168.2907125 314.13809494 -164.43981934 314.16103554 C-160.2646283 314.18582229 -156.08954902 314.19494485 -151.91429138 314.20254517 C-150.69735971 314.2122618 -149.48042805 314.22197843 -148.22661966 314.2319895 C-139.03970352 314.64020786 -139.03970352 314.64020786 -131 311 C-127.27628518 280.53879185 -144.20803346 242.83131238 -162.40087891 219.17871094 C-165.48251388 215.34532946 -168.72256919 211.66627853 -172 208 C-173.25060218 206.54218304 -174.50069064 205.08392503 -175.75 203.625 C-176.82738745 202.41136215 -177.91035525 201.20264495 -179 200 C-179.49113281 199.45472656 -179.98226563 198.90945312 -180.48828125 198.34765625 C-202.77523124 174.84404894 -234.6244144 160.16263103 -266 154 C-267.06347656 153.77441406 -268.12695312 153.54882812 -269.22265625 153.31640625 C-316.89485915 144.7507688 -368.73809083 161.98441872 -403.671875 194.82421875 Z " fill="#0892CA" transform="translate(1092,51)"/>
<path d="M0 0 C31.93592822 28.01620705 49.10564928 71.74707109 52.93115234 113.29443359 C53.01977539 114.2422168 53.10839844 115.19 53.19970703 116.16650391 C53.66461902 122.00786475 53.443396 127.36656099 52.61865234 133.16943359 C49.80615138 129.81655088 48.20619602 126.17358824 46.57958984 122.15771484 C45.99819987 120.75369408 45.41648182 119.34980913 44.83447266 117.94604492 C44.53400024 117.2162442 44.23352783 116.48644348 43.9239502 115.73452759 C32.54444011 88.18053932 19.41027573 63.13249873 -4.38134766 44.16943359 C-5.73873047 43.05568359 -5.73873047 43.05568359 -7.12353516 41.91943359 C-35.07811238 19.39028071 -70.21015869 4.33461195 -106.38134766 3.16943359 C-107.42548828 3.12947266 -108.46962891 3.08951172 -109.54541016 3.04833984 C-139.9565392 2.45409939 -168.73651582 10.92278916 -195.38134766 25.16943359 C-196.06986816 25.5284375 -196.75838867 25.88744141 -197.46777344 26.25732422 C-216.00222548 35.9333673 -233.28003066 47.85081749 -249.38134766 61.16943359 C-249.92065918 61.60723145 -250.4599707 62.0450293 -251.015625 62.49609375 C-265.77713716 74.50258716 -279.86457768 87.99488731 -291.38134766 103.16943359 C-292.3784381 104.42852074 -293.37728185 105.68622051 -294.37744141 106.94287109 C-313.93083422 131.71381101 -328.79502168 159.45996837 -339.38134766 189.16943359 C-339.66413574 189.94512695 -339.94692383 190.72082031 -340.23828125 191.52001953 C-361.71831522 250.72266585 -361.89602567 312.39511124 -335.45483398 370.0559082 C-324.81937002 392.50897067 -311.24500659 413.50094021 -293.98681641 431.44677734 C-291.81774624 433.71340689 -289.77211742 436.01836519 -287.75634766 438.41943359 C-283.67763198 443.10312623 -279.10264534 447.14545495 -274.38134766 451.16943359 C-273.87700195 451.6020752 -273.37265625 452.0347168 -272.85302734 452.48046875 C-254.33029766 468.23549902 -233.12302367 480.72055212 -212.63598633 493.72753906 C-210.87201498 494.85564028 -209.12353606 496.00797466 -207.38134766 497.16943359 C-207.38134766 497.82943359 -207.38134766 498.48943359 -207.38134766 499.16943359 C-216.58275581 497.91948154 -225.51711343 496.11584537 -234.50634766 493.79443359 C-235.16009369 493.62569733 -235.81383972 493.45696106 -236.48739624 493.28311157 C-262.54824924 486.49785031 -287.84092153 477.22488051 -312.38134766 466.16943359 C-313.65437744 465.60409912 -313.65437744 465.60409912 -314.953125 465.02734375 C-328.58271909 458.94762287 -341.51052472 451.70633944 -354.38134766 444.16943359 C-355.18991211 443.69747559 -355.99847656 443.22551758 -356.83154297 442.73925781 C-392.36537059 421.87460025 -426.75811734 394.824747 -453.38134766 363.16943359 C-454.55503906 361.82945312 -454.55503906 361.82945312 -455.75244141 360.46240234 C-517.81343564 289.21315702 -548.87347568 191.00770678 -547.38134766 97.16943359 C-543.19477606 100.73471032 -541.17738236 105.03269782 -538.75634766 109.85693359 C-529.43291533 127.95311294 -519.40151348 144.2619155 -505.38134766 159.16943359 C-504.78193359 159.84490234 -504.18251953 160.52037109 -503.56494141 161.21630859 C-489.5269288 176.37614942 -469.6316641 184.59526023 -449.29931641 186.45068359 C-424.50831093 187.24718176 -403.47373886 175.01347114 -385.92529297 158.67919922 C-376.12286189 149.09377326 -368.87650805 136.96889609 -361.36547852 125.5871582 C-350.30596819 108.83085208 -339.09766678 92.27712459 -325.90869141 77.09912109 C-323.41805078 74.21197972 -321.01952525 71.26656692 -318.63134766 68.29443359 C-315.60958297 64.57906099 -312.47964381 61.14648102 -309.03759766 57.82177734 C-307.34368346 56.13185823 -305.80386446 54.36883453 -304.25634766 52.54443359 C-297.34435063 44.54024742 -289.70858644 36.92446855 -281.63916016 30.08740234 C-279.77886823 28.50711976 -277.94798518 26.90381579 -276.12353516 25.28271484 C-256.44199785 7.86544847 -234.7616318 -7.74752361 -211.38134766 -19.83056641 C-210.60919922 -20.23227051 -209.83705078 -20.63397461 -209.04150391 -21.04785156 C-140.25700816 -56.40449501 -59.42059261 -50.74138004 0 0 Z " fill="#A3CE77" transform="translate(547.38134765625,43.83056640625)"/>
<path d="M0 0 C23.03143733 21.49979002 24.99873371 71.58301768 29 101 C29.18030762 102.30283936 29.36061523 103.60567871 29.54638672 104.94799805 C30.03529125 108.92207514 30.1934143 112.8812226 30.23828125 116.8828125 C30.24812042 117.61107742 30.25795959 118.33934235 30.26809692 119.0896759 C30.79878503 168.58209625 14.05663273 211.74222297 -20.57275391 247.52148438 C-22.05641746 249.05844409 -23.51772277 250.61501765 -24.98046875 252.171875 C-48.52970293 276.86262069 -79.15570825 293.4451404 -112 302 C-113.20914063 302.31710937 -114.41828125 302.63421875 -115.6640625 302.9609375 C-146.45526431 310.24410233 -187.59259344 310.53115218 -216 295 C-223.27117785 290.39039036 -228.76571311 284.7600025 -232.4375 276.9375 C-233.1406431 273.26553047 -232.9547135 270.61427253 -232 267 C-227.84399441 262.84399441 -223.45069425 262.84032919 -217.8125 262.8125 C-211.58643091 262.81320383 -205.5900464 263.35276279 -199.41625977 264.20922852 C-163.25730166 269.03244888 -126.58117984 263.0521314 -97.08789062 240.54052734 C-80.8921998 228.13506044 -80.8921998 228.13506044 -71.59375 210.8984375 C-71.33840102 208.47471923 -71.33840102 208.47471923 -72 205 C-74.23692147 202.53167286 -76.00497644 202.09447978 -79.27807617 201.78369141 C-86.85530079 201.61971558 -93.29344195 203.14671457 -100.5 205.375 C-128.52328597 213.83356239 -128.52328597 213.83356239 -138 209.6875 C-138.66 209.130625 -139.32 208.57375 -140 208 C-140.5775 207.608125 -141.155 207.21625 -141.75 206.8125 C-143.85075716 203.76640212 -144.20795705 200.6014931 -144 197 C-142.60552477 192.50717007 -140.795047 189.5687644 -136.953125 186.8203125 C-135.73154504 186.22805684 -134.49577789 185.66450144 -133.25 185.125 C-132.55664551 184.80168701 -131.86329102 184.47837402 -131.14892578 184.14526367 C-123.10082168 180.45473036 -114.87810028 177.13362902 -106.69140625 173.765625 C-69.85400664 159.40500012 -69.85400664 159.40500012 -37 138 C-36.12214844 137.26007813 -35.24429688 136.52015625 -34.33984375 135.7578125 C-10.79426973 115.23090182 4.8697451 85.19263318 7.15332031 53.89892578 C7.97866096 40.09673633 5.65664599 27.35636028 2.63378906 13.92919922 C1.63394519 9.30819506 0.8093721 4.65761016 0 0 Z " fill="#A3CE77" transform="translate(537,99)"/>
<path d="M0 0 C0.73476562 0.28875 1.46953125 0.5775 2.2265625 0.875 C15.07174764 6.60671608 24.48321421 17.5679656 29.9921875 30.26171875 C35.64915875 45.6320166 35.12493121 61.20708247 28.48046875 76.11328125 C21.44525176 89.83102624 10.88562724 99.86562733 -3.875 104.875 C-19.71936699 108.9117814 -35.39542577 106.92180075 -49.6796875 99.12890625 C-62.42716825 90.95552153 -72.17083994 79.16891041 -75.6015625 64.109375 C-77.6506715 48.11828911 -75.55398085 33.89789948 -67 20 C-64.22479609 16.41599349 -61.22881395 13.17765317 -58 10 C-57.4121875 9.41347656 -56.824375 8.82695313 -56.21875 8.22265625 C-41.03290914 -5.85289908 -18.5473889 -7.48129973 0 0 Z " fill="#0892CA" transform="translate(119,57)"/>
<path d="M0 0 C4.29 0 8.58 0 13 0 C13 19.47 13 38.94 13 59 C25.98155822 58.88003014 25.98155822 58.88003014 38.96289062 58.7421875 C44.2604605 58.68197137 49.55799518 58.62381082 54.85571289 58.578125 C59.12872625 58.54114422 63.40154483 58.49475012 67.67439079 58.44193649 C69.30135607 58.42346033 70.92836299 58.40832757 72.55539131 58.39665604 C74.84124658 58.37967689 77.12666231 58.35061526 79.41235352 58.31884766 C81.36094017 58.29886215 81.36094017 58.29886215 83.34889221 58.2784729 C87.1841073 57.98595799 90.39374356 57.33635947 94 56 C96.99648261 51.50527608 97.12570937 47.35523906 97.31640625 42.04296875 C97.35830078 40.93115234 97.40019531 39.81933594 97.44335938 38.67382812 C97.48267578 37.52333984 97.52199219 36.37285156 97.5625 35.1875 C97.62727539 33.43276367 97.62727539 33.43276367 97.69335938 31.64257812 C97.79918208 28.76184907 97.90007073 25.88093951 98 23 C102.29 23 106.58 23 111 23 C111.04898438 24.95164062 111.09796875 26.90328125 111.1484375 28.9140625 C111.22348353 31.48438891 111.29903056 34.05470072 111.375 36.625 C111.4059375 37.91019531 111.436875 39.19539062 111.46875 40.51953125 C111.50742187 41.76347656 111.54609375 43.00742187 111.5859375 44.2890625 C111.6173584 45.43068848 111.6487793 46.57231445 111.68115234 47.74853516 C112.00910846 51.092884 112.8165928 53.865009 114 57 C118.53374042 58.03039555 119.64467851 58.17766075 124 56 C124.33 45.11 124.66 34.22 125 23 C129.62 23 134.24 23 139 23 C139.33 33.89 139.66 44.78 140 56 C145.5 58.5 145.5 58.5 149 57 C150.16402727 53.50791819 150.21118508 50.60852228 150.31640625 46.92578125 C150.3475779 45.90003242 150.3475779 45.90003242 150.37937927 44.8535614 C150.44466154 42.6733079 150.50366017 40.49293595 150.5625 38.3125 C150.60570553 36.83267014 150.64932047 35.35285217 150.69335938 33.87304688 C150.80109025 30.24881746 150.90032107 26.62449562 151 23 C155.62 23 160.24 23 165 23 C165.06058594 25.04703125 165.12117187 27.0940625 165.18359375 29.203125 C165.24618796 31.19222992 165.30881321 33.18133399 165.37231445 35.17041016 C165.4155455 36.54959378 165.45722866 37.92882685 165.49731445 39.30810547 C165.55530403 41.29406938 165.61937723 43.27985269 165.68359375 45.265625 C165.72025146 46.45961914 165.75690918 47.65361328 165.79467773 48.88378906 C165.96208994 51.42463255 166.26317859 53.5771424 167 56 C174.07926559 58.18813664 179.92266602 58.35911133 187 56 C188.38122152 52.60426563 188.20526383 48.88569243 188.31640625 45.265625 C188.35830078 43.97011719 188.40019531 42.67460938 188.44335938 41.33984375 C188.48316671 39.97656524 188.52287906 38.61328394 188.5625 37.25 C188.60572274 35.87108125 188.64933821 34.49217474 188.69335938 33.11328125 C188.79943899 29.74230694 188.90022365 26.37116677 189 23 C193.62 23 198.24 23 203 23 C203.05607422 25.81917969 203.05607422 25.81917969 203.11328125 28.6953125 C203.1789482 31.17189471 203.24539529 33.64845633 203.3125 36.125 C203.33505859 37.3625 203.35761719 38.6 203.38085938 39.875 C203.41630859 41.07382812 203.45175781 42.27265625 203.48828125 43.5078125 C203.51446533 44.60754395 203.54064941 45.70727539 203.56762695 46.84033203 C204.06021009 50.43999945 205.12797016 52.89956607 207 56 C211.45437155 58.1804616 216.11184896 58.12687872 220.9375 57.4375 C224.58509755 55.72536237 225.27602257 54.57825001 227 51 C227.49705774 48.10966551 227.49705774 48.10966551 227.51171875 45.04296875 C227.54716797 43.93115234 227.58261719 42.81933594 227.61914062 41.67382812 C227.65297852 39.9480957 227.65297852 39.9480957 227.6875 38.1875 C227.72166016 37.01767578 227.75582031 35.84785156 227.79101562 34.64257812 C227.87331637 31.76205212 227.93833933 28.88104172 228 26 C232.62 26 237.24 26 242 26 C242.04898438 27.98644531 242.09796875 29.97289062 242.1484375 32.01953125 C242.20406806 33.94573929 242.25976598 35.87194605 242.31738281 37.7980957 C242.37444092 39.7929536 242.42164442 41.7880854 242.46875 43.78320312 C242.50742187 45.03681641 242.54609375 46.29042969 242.5859375 47.58203125 C242.6173584 48.73936768 242.6487793 49.8967041 242.68115234 51.08911133 C242.79471033 54.19127028 242.79471033 54.19127028 245 57 C248.64787108 58.15195929 250.1627935 57.95930163 254 57 C254.33 45.78 254.66 34.56 255 23 C259.62 23 264.24 23 269 23 C269.06058594 25.28679688 269.12117188 27.57359375 269.18359375 29.9296875 C269.24537353 32.14049622 269.30876519 34.35125324 269.37231445 36.56201172 C269.41566926 38.10037653 269.45734395 39.63878963 269.49731445 41.17724609 C269.55500398 43.3865414 269.61870179 45.59559348 269.68359375 47.8046875 C269.70866249 48.83914505 269.70866249 48.83914505 269.73423767 49.89450073 C269.80806995 53.57114264 269.80806995 53.57114264 271 57 C274.3 57.66 277.6 58.32 281 59 C281 47.12 281 35.24 281 23 C285.62 23 290.24 23 295 23 C295.04933082 29.79930555 295.08568663 36.5985076 295.10986328 43.39794922 C295.11993892 45.71242079 295.13359975 48.02687959 295.15087891 50.34130859 C295.17505865 53.66246693 295.1864673 56.9834574 295.1953125 60.3046875 C295.20563507 61.34430634 295.21595764 62.38392517 295.22659302 63.45504761 C295.22674408 64.41589264 295.22689514 65.37673767 295.22705078 66.36669922 C295.231492 67.21497284 295.23593323 68.06324646 295.24050903 68.93722534 C295 71 295 71 293 73 C289.33311076 73.45871794 285.6297264 73.32394522 281.9375 73.3125 C280.41866211 73.33666992 280.41866211 73.33666992 278.86914062 73.36132812 C273.0331161 73.36509087 268.32965459 72.81841994 262.93969727 70.51708984 C259.86852259 69.69836763 257.81809485 70.93916306 255.03125 72.2109375 C251.38382459 73.62782199 247.83093935 73.64851853 244 73 C241.81125695 72.0354035 239.8366053 70.97065246 237.82421875 69.6796875 C236.00216477 68.75991746 236.00216477 68.75991746 234.26953125 69.7578125 C233.52058594 70.16773438 232.77164063 70.57765625 232 71 C226.41250233 72.65924642 221.37716573 73.35485586 215.5625 73.3125 C214.82112793 73.31121094 214.07975586 73.30992187 213.31591797 73.30859375 C207.68521073 73.20978774 203.22985973 72.16407989 198 70 C194.81658243 69.8059715 194.81658243 69.8059715 191.4375 71.5 C186.57810964 73.18917853 181.96475259 73.30422482 176.875 73.3125 C176.1111499 73.31765625 175.3472998 73.3228125 174.56030273 73.328125 C169.72179254 73.26947004 165.63662453 72.51342145 161 71 C157.00912685 69.70966469 155.15840579 70.71548683 151.28125 72.28515625 C145.89562332 73.97277557 140.7173239 73.79505736 135.625 71.4375 C134.75875 70.963125 133.8925 70.48875 133 70 C130.9519572 70.0950739 130.9519572 70.0950739 129 71 C123.04385177 73.4108219 116.62729479 74.47502335 110.53125 71.99609375 C109.7578125 71.60550781 108.984375 71.21492187 108.1875 70.8125 C106.04532485 69.67762202 106.04532485 69.67762202 104 69 C101.19670262 70.06521129 101.19670262 70.06521129 99 72 C94.41645522 73.33407123 89.74945771 73.14080602 85.01879883 73.12939453 C84.12395279 73.13114685 83.22910675 73.13289917 82.30714417 73.13470459 C79.35708666 73.13909672 76.40708934 73.13619514 73.45703125 73.1328125 C71.40630583 73.13348612 69.35558049 73.13445663 67.30485535 73.13571167 C63.01190428 73.13718491 58.71897404 73.13504539 54.42602539 73.13037109 C48.91437791 73.12466324 43.40277902 73.12796185 37.89113331 73.13394356 C33.65935395 73.13755003 29.4275862 73.13641037 25.1958065 73.13381577 C23.16275718 73.13314729 21.12970681 73.13397214 19.09665871 73.13629532 C16.26208308 73.1388244 13.42758724 73.13497809 10.59301758 73.12939453 C9.74779541 73.13141876 8.90257324 73.13344299 8.03173828 73.13552856 C2.22853251 73.11426625 2.22853251 73.11426625 0 72 C0 48.24 0 24.48 0 0 Z " fill="#0992C9" transform="translate(558,620)"/>
<path d="M0 0 C5.28 0 10.56 0 16 0 C16 14.52 16 29.04 16 44 C27.89216865 43.98126617 27.89216865 43.98126617 38 40 C40.74433909 35.53764009 41.40065215 32.04947931 41.51171875 26.8515625 C41.52966995 26.19417084 41.54762115 25.53677917 41.56611633 24.85946655 C41.61984437 22.78137428 41.65399125 20.70350653 41.6875 18.625 C41.72070653 17.20700024 41.75519924 15.78902999 41.79101562 14.37109375 C41.87794746 10.91403701 41.93832655 7.45796647 42 4 C47.61 4 53.22 4 59 4 C59.04898438 6.49175781 59.09796875 8.98351562 59.1484375 11.55078125 C59.20244452 13.96352149 59.25975304 16.37616226 59.31738281 18.78881836 C59.35566993 20.46582634 59.39052331 22.14291638 59.421875 23.82006836 C59.46753179 26.23060432 59.5255241 28.64057557 59.5859375 31.05078125 C59.59748871 31.80087967 59.60903992 32.55097809 59.62094116 33.32380676 C59.72695459 37.06127713 59.87619082 38.81428623 62 42 C68.17334995 43.32066332 68.17334995 43.32066332 74 41 C74.33 27.47 74.66 13.94 75 0 C80.61 0 86.22 0 92 0 C92.02505615 1.20124512 92.0501123 2.40249023 92.07592773 3.64013672 C92.16993144 8.08686429 92.27016917 12.53343307 92.37231445 16.97998047 C92.41569001 18.90637504 92.45736314 20.83280871 92.49731445 22.75927734 C92.55495362 25.52453408 92.61866616 28.2895935 92.68359375 31.0546875 C92.70030624 31.9193161 92.71701874 32.7839447 92.73423767 33.67477417 C92.72159896 37.97395852 92.72159896 37.97395852 94 42 C98.29 42.66 102.58 43.32 107 44 C107 29.48 107 14.96 107 0 C112.61 0 118.22 0 124 0 C124.04517448 7.51043136 124.08187212 15.02081219 124.10362434 22.53134632 C124.11406404 26.01875161 124.12822649 29.50605916 124.15087891 32.9934082 C124.17675512 37.00212546 124.18647123 41.01073997 124.1953125 45.01953125 C124.20563507 46.27272659 124.21595764 47.52592194 124.22659302 48.8170929 C124.22674408 49.97806992 124.22689514 51.13904694 124.22705078 52.33520508 C124.231492 53.35890701 124.23593323 54.38260895 124.24050903 55.43733215 C124 58 124 58 122 61 C119.22192383 61.38818359 119.22192383 61.38818359 115.70703125 61.3984375 C114.43666016 61.40230469 113.16628906 61.40617188 111.85742188 61.41015625 C111.19282959 61.40387207 110.5282373 61.39758789 109.84350586 61.39111328 C107.83778094 61.37520057 105.83188191 61.39246748 103.82617188 61.41015625 C97.14396808 61.38991737 91.86871794 61.31967883 86 58 C83.96756452 57.03122943 83.96756452 57.03122943 82 57 C79.46326712 58.3553326 79.46326712 58.3553326 77 60 C70.96205946 61.93005443 63.86636406 62.2080749 58.015625 59.7421875 C56.61570312 59.00355469 56.61570312 59.00355469 55.1875 58.25 C51.70583596 56.29805831 51.70583596 56.29805831 47.93359375 56.5234375 C45.84729279 57.75173265 45.84729279 57.75173265 43 60 C39.53310275 60.94200213 36.27983989 61.11859555 32.69921875 61.09765625 C31.72275391 61.09443359 30.74628906 61.09121094 29.74023438 61.08789062 C28.73283203 61.07951172 27.72542969 61.07113281 26.6875 61.0625 C25.66076172 61.05798828 24.63402344 61.05347656 23.57617188 61.04882812 C21.05072118 61.03708184 18.52539095 61.02065565 16 61 C15.87753906 62.23621094 15.75507812 63.47242188 15.62890625 64.74609375 C14.64333415 72.53297037 10.02932611 77.5857192 4.10546875 82.46484375 C-3.77486461 88.21061557 -11.34386155 90 -21 90 C-21 84.39 -21 78.78 -21 73 C-17.77734375 72.08854167 -14.5546875 71.17708333 -11.33203125 70.265625 C-7.05150994 68.63972945 -3.96092385 66.93988847 -1.88247681 62.74397278 C-0.89433007 59.67142999 -0.72189298 57.14986074 -0.68115234 53.92456055 C-0.66128265 52.72369308 -0.64141296 51.52282562 -0.62094116 50.28556824 C-0.60938995 48.99894791 -0.59783875 47.71232758 -0.5859375 46.38671875 C-0.56721402 45.04863811 -0.54763973 43.71056913 -0.5272522 42.37251282 C-0.4760493 38.86273084 -0.43636064 35.35291062 -0.39910889 31.84295654 C-0.35899461 28.25653722 -0.30793626 24.6702753 -0.2578125 21.08398438 C-0.16119364 14.05609899 -0.07775661 7.02812308 0 0 Z " fill="#A3CE77" transform="translate(703,495)"/>
<path d="M0 0 C4.62 0 9.24 0 14 0 C14 11.88 14 23.76 14 36 C23.12939436 35.05980894 23.12939436 35.05980894 32 33 C34.59276429 26.86117042 34.40606643 19.49182385 34.625 12.9375 C34.66367188 11.97650391 34.70234375 11.01550781 34.7421875 10.02539062 C34.8353823 7.68387133 34.91872639 5.34196338 35 3 C39.29 3 43.58 3 48 3 C48.04898438 4.81886719 48.09796875 6.63773438 48.1484375 8.51171875 C48.22347882 10.90366092 48.29902606 13.29558727 48.375 15.6875 C48.4059375 16.88568359 48.436875 18.08386719 48.46875 19.31835938 C48.50742188 20.47529297 48.54609375 21.63222656 48.5859375 22.82421875 C48.6173584 23.88729248 48.6487793 24.95036621 48.68115234 26.0456543 C49.00919192 29.08516955 49.56092879 31.30424514 51 34 C54.59356359 35.0704232 56.4268387 35.19105377 60 34 C61.47206013 31.05587973 61.23807192 28.03714085 61.31640625 24.8046875 C61.3475779 23.74352219 61.3475779 23.74352219 61.37937927 22.66091919 C61.44481078 20.39904575 61.50372974 18.13705538 61.5625 15.875 C61.60569133 14.34243578 61.64930582 12.80988343 61.69335938 11.27734375 C61.80128289 7.51834732 61.90040283 3.75926325 62 0 C66.62 0 71.24 0 76 0 C76.33 10.89 76.66 21.78 77 33 C81.31622777 35.42163702 81.31622777 35.42163702 88 36 C88 24.12 88 12.24 88 0 C92.62 0 97.24 0 102 0 C102.02469161 6.4961723 102.04285601 12.99231737 102.05493164 19.48852539 C102.059965 21.69914221 102.06679217 23.90975569 102.07543945 26.12036133 C102.08754859 29.295093 102.09323825 32.46978072 102.09765625 35.64453125 C102.10281754 36.63524124 102.10797882 37.62595123 102.11329651 38.64668274 C102.11337204 39.56741074 102.11344757 40.48813873 102.11352539 41.43676758 C102.115746 42.2472908 102.11796661 43.05781403 102.12025452 43.89289856 C102 46 102 46 101 49 C97.04752919 50.97623541 92.09586136 50.22872283 87.75 50.25 C86.71230469 50.270625 85.67460937 50.29125 84.60546875 50.3125 C78.89550863 50.34166966 74.99289137 50.07568635 70 47 C67.9519572 47.0950739 67.9519572 47.0950739 66 48 C60.04385177 50.4108219 53.62729479 51.47502335 47.53125 48.99609375 C46.7578125 48.60550781 45.984375 48.21492187 45.1875 47.8125 C43.04532485 46.67762202 43.04532485 46.67762202 41 46 C38.19670262 47.06521129 38.19670262 47.06521129 36 49 C31.32290914 50.38448989 26.51729618 50.11205592 21.6875 50.0625 C20.43356445 50.05573242 20.43356445 50.05573242 19.15429688 50.04882812 C17.10283351 50.03710548 15.05140727 50.01917203 13 50 C12.88785156 51.23363281 12.77570313 52.46726562 12.66015625 53.73828125 C11.89048342 59.8166888 8.84526029 63.60202954 4.2109375 67.5078125 C-2.03170165 71.7980213 -9.45540494 74 -17 74 C-17 69.05 -17 64.1 -17 59 C-15.63875 58.773125 -14.2775 58.54625 -12.875 58.3125 C-7.99501147 57.23490001 -5.47635386 55.56326271 -2 52 C-1.03619923 49.1085977 -0.84887976 47.17346077 -0.79467773 44.16137695 C-0.77473251 43.1805867 -0.75478729 42.19979645 -0.73423767 41.18928528 C-0.71752518 40.13295395 -0.70081268 39.07662262 -0.68359375 37.98828125 C-0.66281265 36.90491989 -0.64203156 35.82155853 -0.62062073 34.70536804 C-0.55518203 31.24114384 -0.49626647 27.7768432 -0.4375 24.3125 C-0.39430939 21.96548685 -0.35069493 19.61848147 -0.30664062 17.27148438 C-0.19950639 11.51440146 -0.09822273 5.75724158 0 0 Z " fill="#0992C9" transform="translate(189,643)"/>
<path d="M0 0 C1.22589844 -0.00708984 2.45179687 -0.01417969 3.71484375 -0.02148438 C10.40997852 0.02660223 10.40997852 0.02660223 13 0.4375 C15.2776212 3.8539318 15.28265288 5.25110535 15.37890625 9.27734375 C15.41306641 10.42267578 15.44722656 11.56800781 15.48242188 12.74804688 C15.50884766 13.94494141 15.53527344 15.14183594 15.5625 16.375 C15.6225102 18.73838058 15.68615934 21.10167229 15.75390625 23.46484375 C15.77783447 24.51406006 15.8017627 25.56327637 15.82641602 26.64428711 C15.97753188 29.07595608 16.3737235 31.10034794 17 33.4375 C22.40205663 34.94461523 27.1456244 35.69911106 32.79296875 35.75634766 C33.89199776 35.77141609 33.89199776 35.77141609 35.01322937 35.78678894 C37.40464583 35.81736875 39.79595171 35.83458494 42.1875 35.8515625 C43.85759415 35.87029451 45.52767904 35.88986941 47.19775391 35.9102478 C51.57060257 35.96136046 55.94348185 36.00109721 60.31646729 36.03839111 C65.57551477 36.08563845 70.83441284 36.14714608 76.09333801 36.20623779 C84.06216433 36.2941954 92.03096572 36.36414164 100 36.4375 C100 24.5575 100 12.6775 100 0.4375 C104.29 0.4375 108.58 0.4375 113 0.4375 C113.07406994 7.07606554 113.1285644 13.71439138 113.16479492 20.35327148 C113.17989602 22.61242868 113.20037842 24.87155649 113.22631836 27.13061523 C113.26264308 30.37491093 113.27971308 33.61881956 113.29296875 36.86328125 C113.30845261 37.87586502 113.32393646 38.88844879 113.33988953 39.93171692 C113.34022942 41.34284004 113.34022942 41.34284004 113.34057617 42.7824707 C113.35056892 44.02490288 113.35056892 44.02490288 113.36076355 45.29243469 C112.90592021 47.99688935 112.10851548 48.72973742 110 50.4375 C107.03818286 50.72869256 104.28748268 50.83681905 101.32519531 50.80981445 C100.43867279 50.81346512 99.55215027 50.81711578 98.63876343 50.82087708 C95.70169032 50.82899676 92.76516667 50.81535633 89.828125 50.80078125 C87.78651937 50.80026263 85.74491324 50.80078041 83.70330811 50.80229187 C79.41931728 50.80220207 75.13551434 50.79176036 70.8515625 50.77368164 C65.36943246 50.75105169 59.88757841 50.75043924 54.40541458 50.75719929 C50.18627486 50.76054786 45.96719762 50.75389148 41.74806976 50.74407005 C39.72752968 50.74022877 37.70698262 50.73906538 35.68643951 50.7406559 C32.85495382 50.74102836 30.02381605 50.72835378 27.19238281 50.7121582 C25.94680099 50.71587433 25.94680099 50.71587433 24.67605591 50.71966553 C18.70775022 50.66541241 13.77970244 49.82735122 8.375 47.125 C5.90585031 46.11621584 5.90585031 46.11621584 3.4375 47.75 C2.633125 48.306875 1.82875 48.86375 1 49.4375 C-5.67622677 51.55983735 -12.86575615 51.12008888 -19.25390625 48.34375 C-25.1313397 45.29327 -28.52045558 40.92480247 -30.59375 34.63671875 C-32.42286138 24.73489463 -31.29334486 15.36552075 -26.4375 6.625 C-18.92105749 -0.12052533 -9.61243423 -0.16072571 0 0 Z M-16 17.4375 C-17.01102038 20.47056113 -17.1982535 22.69690239 -17.25 25.875 C-17.27578125 26.82246094 -17.3015625 27.76992188 -17.328125 28.74609375 C-16.9460336 31.88015296 -16.18780361 33.19320381 -14 35.4375 C-10.68063407 36.4477418 -8.66063037 36.62186196 -5.3125 35.6875 C-1.7080002 33.73912173 -0.30426323 32.35028969 1 28.4375 C1.06970052 26.04259014 1.08448003 23.64582309 1.0625 21.25 C1.05347656 19.97769531 1.04445313 18.70539062 1.03515625 17.39453125 C1.02355469 16.41871094 1.01195313 15.44289063 1 14.4375 C-0.89510699 14.35589252 -2.79124504 14.29803541 -4.6875 14.25 C-5.74324219 14.21519531 -6.79898438 14.18039062 -7.88671875 14.14453125 C-11.40974086 14.4760578 -13.21494596 15.2847285 -16 17.4375 Z " fill="#0892CA" transform="translate(54,642.5625)"/>
<path d="M0 0 C4.29 0 8.58 0 13 0 C13.01458252 1.48322754 13.02916504 2.96645508 13.04418945 4.49462891 C13.10224449 10.00756712 13.17947779 15.52009999 13.26245117 21.03271484 C13.29566646 23.41676241 13.32370892 25.80088797 13.34643555 28.18505859 C13.38004318 31.61589739 13.43236407 35.04602363 13.48828125 38.4765625 C13.49467117 39.53928375 13.5010611 40.602005 13.50764465 41.69692993 C13.61533646 47.14069485 13.77566765 51.37824994 17 56 C23.33751485 58.8932133 30.00307805 58.46177523 37 59 C37 39.53 37 20.06 37 0 C41.29 0 45.58 0 50 0 C50.04513106 9.22270492 50.08184692 18.44533685 50.10362434 27.66812706 C50.11407483 31.95034248 50.12825697 36.23247864 50.15087891 40.51464844 C50.17256238 44.64488126 50.18455909 48.77503769 50.18975449 52.90532303 C50.19345835 54.48343738 50.2006908 56.06154741 50.21146011 57.63962936 C50.22591549 59.84496951 50.22798048 62.04999142 50.22705078 64.25537109 C50.231492 65.51223724 50.23593323 66.76910339 50.24050903 68.0640564 C50 71 50 71 48 73 C43.71056014 73.40210148 39.40510731 73.32890567 35.09887695 73.31567383 C32.96967773 73.31254725 30.84191448 73.33584417 28.71289062 73.36132812 C21.18338657 73.39485751 15.01449527 72.81322085 8 70 C5.0259031 70 3.76932981 70.4387992 1.0703125 71.48828125 C-7.38157406 74.10126908 -16.37680817 73.31290232 -25.125 73.1875 C-26.95832235 73.1724276 -28.79165668 73.15874371 -30.625 73.14648438 C-35.08363256 73.11367723 -39.54168224 73.06203596 -44 73 C-44 68.38 -44 63.76 -44 59 C-39.05 59 -34.1 59 -29 59 C-29 42.17 -29 25.34 -29 8 C-24.71 8 -20.42 8 -16 8 C-16 24.83 -16 41.66 -16 59 C-3.64790104 57.71503217 -3.64790104 57.71503217 -1 53 C-0.67216171 50.55631026 -0.67216171 50.55631026 -0.68115234 47.79418945 C-0.66128265 46.73331619 -0.64141296 45.67244293 -0.62094116 44.579422 C-0.60938995 43.43559555 -0.59783875 42.2917691 -0.5859375 41.11328125 C-0.56657135 39.94113571 -0.5472052 38.76899017 -0.5272522 37.56132507 C-0.46739803 33.8117911 -0.42104717 30.06222652 -0.375 26.3125 C-0.33682564 23.77277295 -0.29777424 21.23305893 -0.2578125 18.69335938 C-0.1616915 12.46234514 -0.07768168 6.2312703 0 0 Z " fill="#0992C9" transform="translate(907,620)"/>
<path d="M0 0 C5.28 0 10.56 0 16 0 C16.04533005 8.58028087 16.08196149 17.16046736 16.10362434 25.74083614 C16.11402564 29.72578853 16.12811741 33.71065416 16.15087891 37.69555664 C16.17273849 41.54701646 16.18459606 45.39839325 16.18975449 49.24991035 C16.19342684 50.71338773 16.20059754 52.17686099 16.21146011 53.64030266 C16.36098133 74.6346532 16.36098133 74.6346532 10 82 C1.70386243 88.63691006 -7.01771191 89.30034991 -17.28125 89.1953125 C-18.33534058 89.1924826 -19.38943115 89.18965271 -20.47546387 89.18673706 C-23.8170951 89.17560986 -27.15845081 89.15051904 -30.5 89.125 C-32.77603778 89.11496056 -35.05207978 89.1058364 -37.328125 89.09765625 C-42.8855216 89.07569495 -48.44271421 89.04121675 -54 89 C-54 83.39 -54 77.78 -54 72 C-47.73 72 -41.46 72 -35 72 C-35 51.54 -35 31.08 -35 10 C-29.72 10 -24.44 10 -19 10 C-19 30.46 -19 50.92 -19 72 C-10.44755254 70.76031668 -10.44755254 70.76031668 -2 69 C-0.93322366 65.49925485 -0.84418006 62.22813035 -0.79467773 58.57910156 C-0.77473251 57.27805481 -0.75478729 55.97700806 -0.73423767 54.63653564 C-0.71725582 53.2212333 -0.70037693 51.80592972 -0.68359375 50.390625 C-0.66301245 48.93902001 -0.64201567 47.48742086 -0.62062073 46.03582764 C-0.56552149 42.22187028 -0.51605885 38.40785993 -0.46777344 34.59381104 C-0.41746951 30.69921166 -0.36182993 26.80468891 -0.30664062 22.91015625 C-0.1992077 15.27350067 -0.09822327 7.6367806 0 0 Z " fill="#A3CE78" transform="translate(892,467)"/>
<path d="M0 0 C6.9382079 5.07861428 11.2659625 10.69703228 13.86328125 18.921875 C14.78857867 28.63749795 14.05898689 36.83782304 8.34765625 45.1015625 C3.32579109 51.13175492 -2.13571729 55.01076744 -9.88671875 56.546875 C-20.47514711 57.4220703 -28.75961478 56.0822341 -37.19921875 49.421875 C-43.67010973 43.34395311 -46.88156297 35.21592441 -47.19921875 26.421875 C-47.05645567 17.8418138 -43.70253949 10.43005715 -37.8203125 4.26953125 C-27.64266297 -4.79782924 -11.99038476 -7.17407895 0 0 Z " fill="#A3CE77" transform="translate(1252.88671875,305.453125)"/>
<path d="M0 0 C8.2390061 4.7396433 13.07065868 11.43306446 15.5546875 20.62890625 C17.22254318 29.93975104 15.54633949 38.45028822 10.1796875 46.25390625 C4.60569991 52.59295096 -1.93382649 56.73303906 -10.375 57.6328125 C-20.69999311 57.95481933 -28.51694351 56.66099147 -36.1953125 49.50390625 C-43.11691387 42.00900053 -45.21585213 34.45476343 -45.09375 24.41796875 C-44.33881712 15.6823169 -40.10082398 9.16497588 -33.8203125 3.25390625 C-24.09076608 -4.29145628 -11.12156123 -5.2326034 0 0 Z " fill="#A3CE77" transform="translate(1126.8203125,662.74609375)"/>
<path d="M0 0 C6.1988141 4.60186352 11.13392825 11.21101549 12.5625 18.90234375 C13.4957634 28.64328046 12.98704666 37.2639834 6.796875 45.15234375 C1.3755195 50.9578898 -5.34519756 55.49840298 -13.44140625 56.140625 C-23.0424392 56.34086608 -29.65397926 55.03003039 -37.6875 49.77734375 C-44.91450603 42.22183744 -47.8077607 34.59803617 -47.89282227 24.30908203 C-47.71355944 16.35908804 -44.95805702 10.04318939 -39.796875 3.97265625 C-38.09736988 2.37639209 -36.41169676 1.13928861 -34.4375 -0.09765625 C-33.81617188 -0.50757812 -33.19484375 -0.9175 -32.5546875 -1.33984375 C-22.51336058 -6.87593654 -9.64381372 -5.5687783 0 0 Z " fill="#A3CE77" transform="translate(690.4375,111.09765625)"/>
<path d="M0 0 C6.9543411 5.40729488 9.16876035 12.07501997 10.62768555 20.51147461 C11.38204844 26.55778678 11.31821944 32.59903926 11.28125 38.68359375 C11.29285156 40.63362305 11.29285156 40.63362305 11.3046875 42.62304688 C11.30210937 43.86892578 11.29953125 45.11480469 11.296875 46.3984375 C11.29461914 47.52241943 11.29236328 48.64640137 11.29003906 49.80444336 C11.03849706 52.66371652 10.51652714 54.32459053 9.03125 56.74609375 C4.67543349 56.84616553 0.32025407 56.91811823 -4.03637695 56.96582031 C-5.51338378 56.98573862 -6.99031384 57.01288382 -8.46704102 57.04785156 C-18.85744022 57.28744029 -28.62563837 56.84956427 -37.40625 50.55859375 C-44.5147927 42.75653468 -45.29538275 33.23211283 -45.1796875 23.0625 C-44.64021292 14.58076076 -41.8290939 7.92089513 -35.96875 1.74609375 C-26.00098359 -6.31295144 -10.8224997 -6.8929016 0 0 Z M-26.58984375 17.484375 C-28.35167872 20.37418364 -28.36922192 22.31705463 -28.34375 25.68359375 C-28.35148438 26.70324219 -28.35921875 27.72289062 -28.3671875 28.7734375 C-27.78883477 33.08840247 -26.00842153 35.70642222 -22.96875 38.74609375 C-19.30937441 40.10553468 -15.57712513 39.84431945 -11.71875 39.80859375 C-10.45546875 39.79957031 -9.1921875 39.79054688 -7.890625 39.78125 C-6.44429687 39.76384766 -6.44429687 39.76384766 -4.96875 39.74609375 C-4.86029973 36.70346108 -4.78122937 33.66473171 -4.71875 30.62109375 C-4.68523438 29.76515625 -4.65171875 28.90921875 -4.6171875 28.02734375 C-4.53080184 22.4122758 -5.14882037 19.16769728 -8.96875 14.74609375 C-15.41217599 11.01568923 -21.5714925 12.10325137 -26.58984375 17.484375 Z " fill="#A3CE77" transform="translate(677.96875,499.25390625)"/>
<path d="M0 0 C4.29 0 8.58 0 13 0 C13.06801209 7.29368633 13.12295142 14.58719684 13.15543652 21.88113403 C13.1710346 25.26869572 13.19216406 28.65602758 13.22631836 32.04345703 C13.26283475 35.94569903 13.2797575 39.84761791 13.29296875 43.75 C13.30845261 44.95551514 13.32393646 46.16103027 13.33988953 47.40307617 C13.34146858 55.35140787 13.01394676 61.69200966 7.4375 67.8125 C-2.19473934 74.71596562 -14.39606491 73.35290677 -25.625 73.1875 C-27.41014497 73.1724266 -29.19530224 73.15874289 -30.98046875 73.14648438 C-35.32062029 73.11368745 -39.66017217 73.06205209 -44 73 C-44 68.38 -44 63.76 -44 59 C-39.05 59 -34.1 59 -29 59 C-29 42.17 -29 25.34 -29 8 C-24.71 8 -20.42 8 -16 8 C-16 24.83 -16 41.66 -16 59 C-3.64790104 57.71503217 -3.64790104 57.71503217 -1 53 C-0.67216171 50.55631026 -0.67216171 50.55631026 -0.68115234 47.79418945 C-0.66128265 46.73331619 -0.64141296 45.67244293 -0.62094116 44.579422 C-0.60938995 43.43559555 -0.59783875 42.2917691 -0.5859375 41.11328125 C-0.56657135 39.94113571 -0.5472052 38.76899017 -0.5272522 37.56132507 C-0.46739803 33.8117911 -0.42104717 30.06222652 -0.375 26.3125 C-0.33682564 23.77277295 -0.29777424 21.23305893 -0.2578125 18.69335938 C-0.1616915 12.46234514 -0.07768168 6.2312703 0 0 Z " fill="#0992C8" transform="translate(344,620)"/>
<path d="M0 0 C4.29 0 8.58 0 13 0 C13.04933082 6.79930555 13.08568663 13.5985076 13.10986328 20.39794922 C13.11993892 22.71242079 13.13359975 25.02687959 13.15087891 27.34130859 C13.17505865 30.66246693 13.1864673 33.9834574 13.1953125 37.3046875 C13.20563507 38.34430634 13.21595764 39.38392517 13.22659302 40.45504761 C13.22674408 41.41589264 13.22689514 42.37673767 13.22705078 43.36669922 C13.231492 44.21497284 13.23593323 45.06324646 13.24050903 45.93722534 C13 48 13 48 11 50 C8.35913086 50.27415466 8.35913086 50.27415466 4.96484375 50.30639648 C3.69592285 50.32238388 2.42700195 50.33837128 1.11962891 50.35484314 C-0.27440998 50.36122376 -1.6684537 50.36661526 -3.0625 50.37109375 C-4.49300225 50.38006309 -5.92350356 50.38918499 -7.35400391 50.39845276 C-10.36021195 50.41496699 -13.36630842 50.42264593 -16.37255859 50.42553711 C-20.20131851 50.43089089 -24.02900812 50.46843276 -27.85746765 50.51428127 C-30.81744055 50.54423524 -33.77716299 50.55126476 -36.73727417 50.55226326 C-38.1469304 50.5564377 -39.55658932 50.56875913 -40.96609497 50.58978081 C-49.55153238 50.70751444 -56.93835546 50.3353141 -64 45 C-68.23347825 39.83760733 -70.13310469 35.15678572 -70.09765625 28.45703125 C-70.09443359 27.38388672 -70.09121094 26.31074219 -70.08789062 25.20507812 C-70.07951172 24.08552734 -70.07113281 22.96597656 -70.0625 21.8125 C-70.05798828 20.68134766 -70.05347656 19.55019531 -70.04882812 18.38476562 C-70.03703511 15.58982124 -70.01909957 12.79490401 -70 10 C-65.71 10 -61.42 10 -57 10 C-56.96261719 11.22976563 -56.92523438 12.45953125 -56.88671875 13.7265625 C-56.82102972 15.35940401 -56.75458341 16.99221518 -56.6875 18.625 C-56.66494141 19.43324219 -56.64238281 20.24148438 -56.61914062 21.07421875 C-56.39729536 26.03548557 -55.82476516 29.74607812 -53 34 C-50.08274166 34.97241945 -48.11196561 35.15167819 -45.06958008 35.20532227 C-43.56836357 35.2352401 -43.56836357 35.2352401 -42.03681946 35.26576233 C-40.95861435 35.28247482 -39.88040924 35.29918732 -38.76953125 35.31640625 C-37.11119514 35.3475779 -37.11119514 35.3475779 -35.4193573 35.37937927 C-31.8838021 35.44482332 -28.34817194 35.50373603 -24.8125 35.5625 C-22.41730992 35.6056901 -20.02212745 35.64930454 -17.62695312 35.69335938 C-11.75137783 35.80129889 -5.87574656 35.90041108 0 36 C0 24.12 0 12.24 0 0 Z " fill="#0992C9" transform="translate(484,643)"/>
<path d="M0 0 C5.61 0 11.22 0 17 0 C17 29.37 17 58.74 17 89 C11.39 89 5.78 89 0 89 C0 59.63 0 30.26 0 0 Z " fill="#A3CE78" transform="translate(920,467)"/>
<path d="M0 0 C4.62 0 9.24 0 14 0 C14.07436593 7.4015078 14.12870504 14.80279625 14.16479492 22.20458984 C14.17984619 24.72057892 14.20029181 27.23654192 14.22631836 29.75244141 C14.26286182 33.37669325 14.27976353 37.000597 14.29296875 40.625 C14.30845261 41.74302002 14.32393646 42.86104004 14.33988953 44.01293945 C14.34143343 51.23867109 13.69492298 56.99423133 9.5625 63.13671875 C2.36908496 70.27618318 -5.96362812 73.50640794 -16 74 C-16.93619813 70.84493858 -17.1057123 68.03413498 -17.0625 64.75 C-17.05347656 63.85796875 -17.04445313 62.9659375 -17.03515625 62.046875 C-17.02355469 61.37140625 -17.01195312 60.6959375 -17 60 C-16.41992188 59.82984375 -15.83984375 59.6596875 -15.2421875 59.484375 C-10.20382972 57.92132011 -6.17951945 56.23912757 -2 53 C-0.76788052 50.53576104 -0.84220092 48.84765337 -0.79467773 46.09130859 C-0.77473251 45.07040131 -0.75478729 44.04949402 -0.73423767 42.99765015 C-0.71752518 41.89240997 -0.70081268 40.7871698 -0.68359375 39.6484375 C-0.66281265 38.5192691 -0.64203156 37.39010071 -0.62062073 36.22671509 C-0.55508665 32.60954028 -0.49622226 28.99229119 -0.4375 25.375 C-0.39431846 22.92707556 -0.35070429 20.47915872 -0.30664062 18.03125 C-0.19940129 12.02091001 -0.0981447 6.0104951 0 0 Z " fill="#0B91C7" transform="translate(534,643)"/>
<path d="M0 0 C4.62 0 9.24 0 14 0 C14 24.09 14 48.18 14 73 C9.38 73 4.76 73 0 73 C0 48.91 0 24.82 0 0 Z " fill="#0892CA" transform="translate(507,620)"/>
<path d="M0 0 C4.62 0 9.24 0 14 0 C14 24.09 14 48.18 14 73 C9.38 73 4.76 73 0 73 C0 48.91 0 24.82 0 0 Z " fill="#0892CA" transform="translate(367,620)"/>
<path d="M0 0 C2.97 0 5.94 0 9 0 C9.33 0.99 9.66 1.98 10 3 C10.391875 2.51144531 10.78375 2.02289062 11.1875 1.51953125 C13.56386617 -0.47272401 14.93603854 -0.37177306 18 -0.3125 C18.86625 -0.30863281 19.7325 -0.30476562 20.625 -0.30078125 C23 0 23 0 26 2 C26 2.66 26 3.32 26 4 C26.78375 3.34 27.5675 2.68 28.375 2 C32.61906526 -0.81257531 37.08193888 -0.97541545 42 0 C44.82424288 2.19022918 46.41508603 3.83017207 48 7 C48.084915 8.8863912 48.107193 10.77578515 48.09765625 12.6640625 C48.09443359 13.78554688 48.09121094 14.90703125 48.08789062 16.0625 C48.07532227 17.8259375 48.07532227 17.8259375 48.0625 19.625 C48.05798828 20.80835938 48.05347656 21.99171875 48.04882812 23.2109375 C48.03701467 26.14067507 48.02054258 29.07031272 48 32 C45.03 32 42.06 32 39 32 C38.95101562 30.59105469 38.90203125 29.18210937 38.8515625 27.73046875 C38.77652997 25.88279261 38.70098234 24.03513733 38.625 22.1875 C38.5940625 21.25873047 38.563125 20.32996094 38.53125 19.37304688 C38.47324219 18.0340332 38.47324219 18.0340332 38.4140625 16.66796875 C38.3826416 15.84578857 38.3512207 15.0236084 38.31884766 14.17651367 C38.11626378 11.71047063 38.11626378 11.71047063 36 9 C32.70924004 9.37904208 32.70924004 9.37904208 30 11 C29.84313751 12.55948542 29.74923361 14.12542668 29.68359375 15.69140625 C29.64169922 16.63564453 29.59980469 17.57988281 29.55664062 18.55273438 C29.51732422 19.54595703 29.47800781 20.53917969 29.4375 21.5625 C29.39431641 22.55958984 29.35113281 23.55667969 29.30664062 24.58398438 C29.20019702 27.0558415 29.09818072 29.5278031 29 32 C26.03 32 23.06 32 20 32 C19.95101563 30.67484375 19.90203125 29.3496875 19.8515625 27.984375 C19.77651682 26.23956283 19.70096976 24.49477218 19.625 22.75 C19.5940625 21.87730469 19.563125 21.00460937 19.53125 20.10546875 C19.49257813 19.26113281 19.45390625 18.41679688 19.4140625 17.546875 C19.36693115 16.38430176 19.36693115 16.38430176 19.31884766 15.19824219 C18.96973494 12.79134258 18.19448896 11.10397705 17 9 C15.02 9 13.04 9 11 9 C9.85149303 13.73879768 9.67098443 18.46291362 9.4375 23.3125 C9.39431641 24.14845703 9.35113281 24.98441406 9.30664062 25.84570312 C9.20114693 27.89696935 9.10012685 29.9484648 9 32 C6.03 32 3.06 32 0 32 C0 21.44 0 10.88 0 0 Z " fill="#0C91C6" transform="translate(266,760)"/>
<path d="M0 0 C9 0 9 0 11.56640625 2.01953125 C12.22511719 2.94121094 12.88382813 3.86289062 13.5625 4.8125 C14.2946875 5.80507813 15.026875 6.79765625 15.78125 7.8203125 C16.5134375 8.86960937 17.245625 9.91890625 18 11 C19.52046852 13.06276896 21.04128116 15.12528432 22.5625 17.1875 C23.696875 18.775625 24.83125 20.36375 26 22 C26.33 14.74 26.66 7.48 27 0 C29.97 0 32.94 0 36 0 C36 13.53 36 27.06 36 41 C28 41 28 41 25.87011719 39.44287109 C25.35094727 38.72695801 24.83177734 38.01104492 24.296875 37.2734375 C23.7090625 36.48839844 23.12125 35.70335937 22.515625 34.89453125 C21.64164063 33.64736328 21.64164063 33.64736328 20.75 32.375 C20.151875 31.56675781 19.55375 30.75851562 18.9375 29.92578125 C15.8275111 25.6942698 12.91507034 21.37260551 10 17 C9.67 24.92 9.34 32.84 9 41 C6.03 41 3.06 41 0 41 C0 27.47 0 13.94 0 0 Z " fill="#0A92C8" transform="translate(29,751)"/>
<path d="M0 0 C2.97 0 5.94 0 9 0 C9.33 4.29 9.66 8.58 10 13 C10.99 12.34 11.98 11.68 13 11 C17.34615406 10.35182946 21.9666809 9.99534824 25.984375 11.98046875 C28.81947776 14.2611826 30.70305051 16.63839998 32 20 C33.33550492 32.88917542 33.33550492 32.88917542 30.25 37.6875 C25.96781427 42.08863534 23.35716231 43.78450297 17 44 C14.47279312 43.22807105 12.37015963 42.20926512 10 41 C9.67 41.66 9.34 42.32 9 43 C6.03 43 3.06 43 0 43 C0 28.81 0 14.62 0 0 Z M10.625 20.5 C8.35213037 23.99672251 8.16599911 26.93841566 9 31 C10.79935722 33.50624756 12.1888192 34.60749316 14.9375 35.9375 C17.97663665 36.02959505 19.59149381 34.75755857 22 33 C23.60160199 29.79679603 23.48770192 26.47573478 23 23 C21.54002013 20.37283423 21.54002013 20.37283423 19 19 C15.39853135 18.39975523 13.72140596 18.54437518 10.625 20.5 Z " fill="#0A91C8" transform="translate(107,749)"/>
<path d="M0 0 C2.97 0 5.94 0 9 0 C9 14.19 9 28.38 9 43 C6.03 43 3.06 43 0 43 C-0.33 42.34 -0.66 41.68 -1 41 C-1.969375 41.53625 -2.93875 42.0725 -3.9375 42.625 C-7.89713841 44.30362967 -10.81024518 44.05489935 -14.9140625 42.94140625 C-18.95278838 41.11868539 -21.04173449 37.91653102 -23 34 C-24.04622952 20.62198315 -24.04622952 20.62198315 -21.25 16.3125 C-16.26443769 11.18844985 -16.26443769 11.18844985 -12.5625 10.63671875 C-11.716875 10.65347656 -10.87125 10.67023437 -10 10.6875 C-9.154375 10.69136719 -8.30875 10.69523438 -7.4375 10.69921875 C-5 11 -5 11 -1 13 C-0.67 8.71 -0.34 4.42 0 0 Z M-14 23 C-15.17110449 25.8596006 -15.17110449 25.8596006 -15 29 C-13.28484919 32.49626895 -12.1363321 34.47553903 -8.5625 36.125 C-4.9776345 35.95012851 -3.5253174 34.45516969 -1 32 C0.42662219 29.14675563 0.31033868 27.16545451 0 24 C-1.47616674 21.0296131 -1.47616674 21.0296131 -4 19 C-8.83376127 18.09366976 -11.16005022 19.00303364 -14 23 Z " fill="#0C91C7" transform="translate(167,749)"/>
<path d="M0 0 C2.88714333 1.86858261 5.00440001 4.37272987 6.8515625 7.24609375 C4.6015625 9.80859375 4.6015625 9.80859375 1.8515625 12.24609375 C-0.95491254 12.24609375 -2.16727337 11.23285773 -4.4609375 9.62109375 C-8.14157758 7.73797557 -10.20834381 8.17152274 -14.1484375 9.24609375 C-16.97780917 11.55426537 -18.93389299 13.48753216 -19.38671875 17.19921875 C-19.51750724 21.24677827 -19.27144474 23.94659786 -17.7109375 27.74609375 C-14.58842078 30.79245153 -12.65876821 31.26291904 -8.390625 31.5078125 C-5.02613608 31.11509341 -2.8701252 29.16364645 -0.1484375 27.24609375 C2.6015625 27.74609375 2.6015625 27.74609375 4.8515625 29.24609375 C5.9921875 31.33984375 5.9921875 31.33984375 6.8515625 33.24609375 C1.8307875 38.09900089 -2.30093217 41.19206105 -9.6015625 41.2734375 C-16.83566024 40.85108748 -20.75300502 38.64152623 -25.8984375 33.49609375 C-30.06202625 27.48202112 -30.68230667 21.80656388 -29.75390625 14.70703125 C-28.22093976 8.47626423 -24.47676407 3.75157176 -19.1484375 0.24609375 C-13.42619329 -1.66132099 -5.74092589 -2.01454309 0 0 Z " fill="#0A92C7" transform="translate(808.1484375,751.75390625)"/>
<path d="M0 0 C3.69104758 1.28044484 6.23134402 3.23134402 9 6 C8.82177531 8.76248272 8.14486095 9.84479184 6.25 11.875 C4 13 4 13 1.4375 12.3125 C-1 11 -1 11 -4 9 C-6.99081816 8.53476162 -9.0418054 8.42330881 -11.6875 10.015625 C-14.4091858 12.18773963 -15.88816619 13.66449856 -17 17 C-17.39390983 22.21930524 -16.87698427 25.58177416 -14 30 C-10.84493089 32.39350071 -7.8682349 32.46418819 -4 32 C-2.989375 31.29875 -1.97875 30.5975 -0.9375 29.875 C2 28 2 28 4.75 28.5 C7.20376788 30.13584525 7.99694017 31.26438229 9 34 C5.234507 38.35385128 1.72319516 40.87330827 -4 42 C-10.64898261 42.26054007 -15.67581812 40.96703748 -21 37 C-26.5297437 30.69465589 -27.29775036 25.46784185 -27.21484375 17.16796875 C-26.77668834 10.70716805 -23.7270614 7.164316 -19 3 C-13.12717897 -1.25060823 -6.98383333 -0.7465477 0 0 Z " fill="#0A92C8" transform="translate(427,751)"/>
<path d="M0 0 C10.23 0 20.46 0 31 0 C31 2.64 31 5.28 31 8 C23.74 8 16.48 8 9 8 C9 10.97 9 13.94 9 17 C15.6 17 22.2 17 29 17 C29 19.64 29 22.28 29 25 C22.4 25 15.8 25 9 25 C9 30.28 9 35.56 9 41 C6.03 41 3.06 41 0 41 C0 27.47 0 13.94 0 0 Z " fill="#0B91C7" transform="translate(197,751)"/>
<path d="M0 0 C2.50906848 1.49423433 3.73893317 3.12898897 4.95703125 5.75 C6.17555837 10.75584114 6.03526708 15.55769569 5.94921875 20.6875 C5.94019531 21.70972656 5.93117188 22.73195313 5.921875 23.78515625 C5.89842305 26.29451522 5.8656023 28.80338336 5.82421875 31.3125 C2.85421875 31.3125 -0.11578125 31.3125 -3.17578125 31.3125 C-3.50578125 30.6525 -3.83578125 29.9925 -4.17578125 29.3125 C-5.00078125 29.828125 -5.82578125 30.34375 -6.67578125 30.875 C-10.95897477 32.63416877 -13.79566469 32.75155267 -18.17578125 31.3125 C-21.26391202 29.25374615 -22.83799329 27.8408521 -23.65234375 24.15625 C-23.92715891 19.81706321 -23.58791438 17.86201084 -20.92578125 14.3125 C-16.31866632 10.96187096 -12.83822294 11.11026994 -7.17578125 11.3125 C-4.73828125 11.8125 -4.73828125 11.8125 -3.17578125 12.3125 C-4.48473845 9.19052522 -4.48473845 9.19052522 -7.17578125 7.3125 C-9.2207655 7.40030403 -11.26323073 7.55491538 -13.30078125 7.75 C-14.39648438 7.85183594 -15.4921875 7.95367188 -16.62109375 8.05859375 C-17.88566406 8.18427734 -17.88566406 8.18427734 -19.17578125 8.3125 C-19.83578125 6.0025 -20.49578125 3.6925 -21.17578125 1.3125 C-14.84450759 -1.6795953 -6.70749026 -2.11942242 0 0 Z M-14.17578125 19.3125 C-13.88594856 22.61933466 -13.88594856 22.61933466 -12.17578125 25.3125 C-8.69522251 25.13682642 -8.69522251 25.13682642 -5.17578125 24.3125 C-2.80598112 21.35872502 -2.80598112 21.35872502 -3.17578125 17.3125 C-4.63371009 17.25850264 -6.09220837 17.21970823 -7.55078125 17.1875 C-8.76894531 17.15269531 -8.76894531 17.15269531 -10.01171875 17.1171875 C-12.38920368 17.09879949 -12.38920368 17.09879949 -14.17578125 19.3125 Z " fill="#0B91C8" transform="translate(254.17578125,760.6875)"/>
<path d="M0 0 C4.90331294 2.27653815 7.5537698 5.19814071 10 10 C11.61804054 16.07319327 11.19752962 20.45761533 8 26 C4.72972495 29.97736155 2.08283872 32.02253101 -3 33 C-8.302361 32.99061529 -12.76029722 32.39176223 -17 29 C-21.59818022 23.76318364 -22.3582252 20.69406149 -22.27734375 13.828125 C-21.74295879 8.37890377 -19.41511374 5.3797359 -15.5 1.5625 C-10.32575261 -0.74743187 -5.57666708 -0.75070518 0 0 Z M-11.375 9.5 C-13.64786963 12.99672251 -13.83400089 15.93841566 -13 20 C-11.20064278 22.50624756 -9.8111808 23.60749316 -7.0625 24.9375 C-3.96377682 25.0314007 -2.42634651 23.8516855 0 22 C1.92863839 19.45770394 2.00902291 18.21654982 1.875 15 C0.85227852 11.49352636 -0.01503556 10.09754258 -3 8 C-6.60146865 7.39975523 -8.27859404 7.54437518 -11.375 9.5 Z " fill="#0B92C7" transform="translate(714,760)"/>
<path d="M0 0 C2.97 0 5.94 0 9 0 C11.31 5.94 13.62 11.88 16 18 C18.40681178 12.02446731 20.76262045 6.04092479 23 0 C25.97 0 28.94 0 32 0 C31.10592029 6.54233381 28.77959586 12.43708935 26.44458008 18.56811523 C25.68978579 20.55647851 24.95095765 22.55029882 24.21289062 24.54492188 C23.73012797 25.82328011 23.24643474 27.10128739 22.76171875 28.37890625 C22.32819092 29.5294751 21.89466309 30.68004395 21.44799805 31.86547852 C19.69695278 35.65601472 17.82892585 39.08553707 14 41 C12.35744209 41.12114921 10.70947522 41.17540767 9.0625 41.1875 C7.74958984 41.20876953 7.74958984 41.20876953 6.41015625 41.23046875 C4 41 4 41 1 39 C1.875 34.25 1.875 34.25 3 32 C5.64 32.33 8.28 32.66 11 33 C8.77421661 25.03948837 5.87189008 17.50720018 2.69726562 9.88476562 C2.17616211 8.61342773 2.17616211 8.61342773 1.64453125 7.31640625 C1.32846924 6.55787354 1.01240723 5.79934082 0.68676758 5.01782227 C0 3 0 3 0 0 Z " fill="#0A92C8" transform="translate(352,760)"/>
<path d="M0 0 C4.8846525 2.26787438 7.73212562 5.1153475 10 10 C10.75703138 15.62366168 10.79821607 20.34444075 8.3125 25.5 C7.549375 26.325 6.78625 27.15 6 28 C5.29875 28.763125 4.5975 29.52625 3.875 30.3125 C-0.30620256 32.76668411 -4.18909367 33.18822012 -9 33 C-14.25878258 31.44822809 -17.45814314 29.16689042 -21 25 C-23.0077921 18.97662369 -23.04953453 12.26053591 -20.375 6.5 C-14.13633057 -0.06702045 -8.87259444 -1.19438771 0 0 Z M-11.3125 9.625 C-13.42750105 12.60166814 -14 14.33857073 -14 18 C-12.28722865 21.49141853 -11.17342817 23.48850567 -7.5625 25.0625 C-4.09117651 24.97783357 -2.63155703 24.27594122 0 22 C1.66359081 18.67745889 1.66359081 18.67745889 2 15 C0.67765243 12.02471797 -0.70912149 10.29087851 -3 8 C-6.57130851 7.53417715 -8.33119087 7.53002602 -11.3125 9.625 Z " fill="#0B91C7" transform="translate(462,760)"/>
<path d="M0 0 C1.1034375 -0.01675781 2.206875 -0.03351562 3.34375 -0.05078125 C6.91867452 0.36068902 8.68050744 1.09649472 11.5 3.3125 C14.16605775 7.01123937 14.86569477 9.5175261 14.79296875 14.05078125 C14.78330078 15.11748047 14.77363281 16.18417969 14.76367188 17.28320312 C14.73853516 18.38599609 14.71339844 19.48878906 14.6875 20.625 C14.66719727 22.30819336 14.66719727 22.30819336 14.64648438 24.02539062 C14.6112138 26.78825229 14.56192235 29.55012829 14.5 32.3125 C11.53 32.3125 8.56 32.3125 5.5 32.3125 C5.5 31.6525 5.5 30.9925 5.5 30.3125 C4.51 30.828125 3.52 31.34375 2.5 31.875 C-1.68855861 33.63860363 -5.20103878 33.90105143 -9.5 32.3125 C-12.77371352 29.6400808 -14.28236726 28.24775725 -14.75390625 24.0546875 C-14.52719535 19.89145089 -14.04677049 17.88804789 -11.125 14.8125 C-6.19141246 11.99330712 -1.61902964 11.67269905 3.9375 12.8125 C4.453125 12.9775 4.96875 13.1425 5.5 13.3125 C4.1910428 10.19052522 4.1910428 10.19052522 1.5 8.3125 C-0.54498425 8.40030403 -2.58744948 8.55491538 -4.625 8.75 C-5.72070312 8.85183594 -6.81640625 8.95367188 -7.9453125 9.05859375 C-9.20988281 9.18427734 -9.20988281 9.18427734 -10.5 9.3125 C-10.83 7.0025 -11.16 4.6925 -11.5 2.3125 C-7.55217867 0.46380009 -4.34690758 0.01523449 0 0 Z M-5.5 20.3125 C-5.21016731 23.61933466 -5.21016731 23.61933466 -3.5 26.3125 C0.64839745 26.70130902 0.64839745 26.70130902 4.375 25.125 C5.84781139 22.75213721 5.72223194 21.05336056 5.5 18.3125 C4.04207116 18.25850264 2.58357288 18.21970823 1.125 18.1875 C-0.09316406 18.15269531 -0.09316406 18.15269531 -1.3359375 18.1171875 C-3.71342243 18.09879949 -3.71342243 18.09879949 -5.5 20.3125 Z " fill="#0C91C7" transform="translate(85.5,759.6875)"/>
<path d="M0 0 C1.1034375 -0.01675781 2.206875 -0.03351562 3.34375 -0.05078125 C7.66265692 0.44632066 10.17519007 1.89170955 13.12426758 5.05444336 C14.88377411 7.94240714 14.8444863 9.80606164 14.79296875 13.171875 C14.78330078 14.28691406 14.77363281 15.40195312 14.76367188 16.55078125 C14.73853516 17.70964844 14.71339844 18.86851562 14.6875 20.0625 C14.66719727 21.82400391 14.66719727 21.82400391 14.64648438 23.62109375 C14.6111478 26.51869298 14.56180979 29.41536427 14.5 32.3125 C10.5 32.3125 6.5 32.3125 2.5 32.3125 C1.22125 32.51875 -0.0575 32.725 -1.375 32.9375 C-5.83580816 33.51044784 -8.47916337 32.61160926 -12.25 30.1875 C-14.2811968 27.1407048 -14.59797875 23.88872453 -14.5 20.3125 C-13.16362199 16.55393684 -11.84465523 15.52351341 -8.4375 13.4375 C-3.81829411 11.66316984 0.73155983 12.5161609 5.5 13.3125 C4.1910428 10.19052522 4.1910428 10.19052522 1.5 8.3125 C-0.54498425 8.40030403 -2.58744948 8.55491538 -4.625 8.75 C-5.72070312 8.85183594 -6.81640625 8.95367188 -7.9453125 9.05859375 C-9.20988281 9.18427734 -9.20988281 9.18427734 -10.5 9.3125 C-10.83 7.0025 -11.16 4.6925 -11.5 2.3125 C-7.55217867 0.46380009 -4.34690758 0.01523449 0 0 Z M-5.5 20.3125 C-5.21016731 23.61933466 -5.21016731 23.61933466 -3.5 26.3125 C0.64839745 26.70130902 0.64839745 26.70130902 4.375 25.125 C5.84781139 22.75213721 5.72223194 21.05336056 5.5 18.3125 C4.04207116 18.25850264 2.58357288 18.21970823 1.125 18.1875 C-0.09316406 18.15269531 -0.09316406 18.15269531 -1.3359375 18.1171875 C-3.71342243 18.09879949 -3.71342243 18.09879949 -5.5 20.3125 Z " fill="#0C91C7" transform="translate(631.5,759.6875)"/>
<path d="M0 0 C2.97 0 5.94 0 9 0 C9.33 0.99 9.66 1.98 10 3 C10.39445312 2.51402344 10.78890625 2.02804687 11.1953125 1.52734375 C14.10473656 -0.93496103 16.87858204 -0.46513787 20.55078125 -0.36328125 C23.95445483 0.14156986 25.70856669 1.48681508 28 4 C29.35700647 6.71401294 29.1123861 8.84846316 29.09765625 11.8828125 C29.09443359 13.04941406 29.09121094 14.21601562 29.08789062 15.41796875 C29.07951172 16.64128906 29.07113281 17.86460937 29.0625 19.125 C29.05798828 20.35605469 29.05347656 21.58710937 29.04882812 22.85546875 C29.0370133 25.90369392 29.02054028 28.95182314 29 32 C26.03 32 23.06 32 20 32 C19.98018066 31.37432129 19.96036133 30.74864258 19.93994141 30.10400391 C19.84485774 27.27723481 19.73511254 24.45122185 19.625 21.625 C19.5940625 20.64015625 19.563125 19.6553125 19.53125 18.640625 C19.49257813 17.69960938 19.45390625 16.75859375 19.4140625 15.7890625 C19.36693115 14.48509521 19.36693115 14.48509521 19.31884766 13.15478516 C19.18770567 10.79038206 19.18770567 10.79038206 17 9 C13.91652174 8.83318891 13.91652174 8.83318891 11 9 C10.19347492 11.88167681 9.82484994 14.56031547 9.68359375 17.546875 C9.64169922 18.39121094 9.59980469 19.23554687 9.55664062 20.10546875 C9.51732422 20.97816406 9.47800781 21.85085938 9.4375 22.75 C9.39431641 23.63816406 9.35113281 24.52632812 9.30664062 25.44140625 C9.20086505 27.62743472 9.0999574 29.81369777 9 32 C6.03 32 3.06 32 0 32 C0 21.44 0 10.88 0 0 Z " fill="#0B91C7" transform="translate(478,760)"/>
<path d="M0 0 C4.18365004 1.86770091 5.59272556 3.29405763 7.875 7.25 C9 11 9 11 9 19 C-0.9 19.495 -0.9 19.495 -11 20 C-10.01 21.32 -9.02 22.64 -8 24 C-3.62144505 24.46913089 -1.70415293 24.46943529 2 22 C4.0625 22.125 4.0625 22.125 6 23 C7.25 25.0625 7.25 25.0625 8 27 C3.73448344 31.377767 0.59276597 32.82507691 -5.5390625 33.12890625 C-9.94367864 32.89818826 -13.26029143 31.61770303 -16.50390625 28.6015625 C-20.09110309 24.5749085 -20.8511639 21.93486934 -21.25 16.75 C-20.86420847 10.96312701 -19.69975099 6.61683631 -15.4375 2.5625 C-10.39421883 -0.67037254 -5.90501699 -0.58382936 0 0 Z M-10.3125 9.375 C-12.18025253 11.76028917 -12.18025253 11.76028917 -12 14 C-7.71 14 -3.42 14 1 14 C-0.54042748 9.19695965 -0.54042748 9.19695965 -3 7 C-6.72816525 6.31323272 -7.62093511 6.61069012 -10.3125 9.375 Z " fill="#0B91C8" transform="translate(839,760)"/>
<path d="M0 0 C2.97 0 5.94 0 9 0 C9.33 0.66 9.66 1.32 10 2 C10.99 1.34 11.98 0.68 13 0 C16.39210287 -0.54618606 19.6065435 -0.53580892 23 0 C26.61539549 2.65620893 28.22671399 4.64763057 29 9 C29.07991104 10.80581755 29.10769823 12.61431809 29.09765625 14.421875 C29.09443359 15.44667969 29.09121094 16.47148438 29.08789062 17.52734375 C29.07951172 18.59082031 29.07113281 19.65429688 29.0625 20.75 C29.05798828 21.82894531 29.05347656 22.90789063 29.04882812 24.01953125 C29.03705727 26.67974383 29.02061399 29.33984365 29 32 C26.03 32 23.06 32 20 32 C19.96261719 30.59105469 19.92523437 29.18210937 19.88671875 27.73046875 C19.82106503 25.88278561 19.75461749 24.03513055 19.6875 22.1875 C19.66494141 21.25873047 19.64238281 20.32996094 19.61914062 19.37304688 C19.5659668 18.0340332 19.5659668 18.0340332 19.51171875 16.66796875 C19.48553467 15.84578857 19.45935059 15.0236084 19.43237305 14.17651367 C18.90713687 11.53253821 18.16143103 10.57944511 16 9 C12.68181015 9.24205349 12.68181015 9.24205349 10 11 C9.84313751 12.55948542 9.74923361 14.12542668 9.68359375 15.69140625 C9.64169922 16.63564453 9.59980469 17.57988281 9.55664062 18.55273438 C9.51732422 19.54595703 9.47800781 20.53917969 9.4375 21.5625 C9.39431641 22.55958984 9.35113281 23.55667969 9.30664062 24.58398438 C9.20019702 27.0558415 9.09818072 29.5278031 9 32 C6.03 32 3.06 32 0 32 C0 21.44 0 10.88 0 0 Z " fill="#0C91C7" transform="translate(854,760)"/>
<path d="M0 0 C6.26829381 5.69844891 6.16076889 8.85768891 7.0625 17.875 C0.1325 17.875 -6.7975 17.875 -13.9375 17.875 C-12.4375 21.875 -12.4375 21.875 -9.9375 22.875 C-5.88607881 23.13360135 -4.39412331 23.17941554 -0.9375 20.875 C2.36379606 21.18449651 3.9211563 22.41245474 6.0625 24.875 C2.6404429 28.69965205 0.15247639 30.89615839 -4.9375 31.875 C-10.93513707 31.96129694 -15.32613844 30.93738994 -19.9375 26.875 C-23.93741583 21.54177889 -23.70802453 15.26179218 -22.9375 8.875 C-21.71812212 5.13819681 -19.74949306 2.63778136 -16.875 -0.0625 C-11.39721342 -2.04382706 -5.44711824 -2.08613039 0 0 Z M-12.6875 7.125 C-14.24998565 9.08645645 -14.24998565 9.08645645 -14.9375 12.875 C-10.6475 12.875 -6.3575 12.875 -1.9375 12.875 C-3.47792748 8.07195965 -3.47792748 8.07195965 -5.9375 5.875 C-8.79578587 5.50855309 -10.31003996 5.42681426 -12.6875 7.125 Z " fill="#0A92C8" transform="translate(934.9375,761.125)"/>
<path d="M0 0 C2.64 0 5.28 0 8 0 C8.04898438 1.15757812 8.09796875 2.31515625 8.1484375 3.5078125 C8.22351478 5.0468967 8.29906043 6.5859581 8.375 8.125 C8.4059375 8.88554688 8.436875 9.64609375 8.46875 10.4296875 C8.702369 14.94632158 9.32654117 18.74152347 11 23 C13.31 23 15.62 23 18 23 C18.80652508 20.11832319 19.17515006 17.43968453 19.31640625 14.453125 C19.35830078 13.60878906 19.40019531 12.76445313 19.44335938 11.89453125 C19.48267578 11.02183594 19.52199219 10.14914062 19.5625 9.25 C19.60568359 8.36183594 19.64886719 7.47367188 19.69335938 6.55859375 C19.79913495 4.37256528 19.9000426 2.18630223 20 0 C22.97 0 25.94 0 29 0 C29 10.56 29 21.12 29 32 C26.03 32 23.06 32 20 32 C19.67 31.34 19.34 30.68 19 30 C17.4840625 30.7734375 17.4840625 30.7734375 15.9375 31.5625 C11.97831137 33.2455559 9.19529099 33.18734651 5 32 C2.6818638 30.10888889 1.33085985 28.66171969 0 26 C-0.08510205 24.0406396 -0.10717656 22.07837206 -0.09765625 20.1171875 C-0.09443359 18.95058594 -0.09121094 17.78398438 -0.08789062 16.58203125 C-0.07951172 15.35871094 -0.07113281 14.13539063 -0.0625 12.875 C-0.05798828 11.64394531 -0.05347656 10.41289063 -0.04882812 9.14453125 C-0.0370133 6.09630608 -0.02054028 3.04817686 0 0 Z " fill="#0B91C7" transform="translate(543,760)"/>
<path d="M0 0 C2.97 0 5.94 0 9 0 C9.33 0.99 9.66 1.98 10 3 C10.55816406 2.51660156 11.11632812 2.03320312 11.69140625 1.53515625 C14.33033802 -0.2196664 15.79715544 -0.48991885 18.9375 -0.5625 C19.77152344 -0.60503906 20.60554687 -0.64757812 21.46484375 -0.69140625 C24.46201345 0.12600367 26.16367239 1.36276591 28.04272461 3.8449707 C30.19161549 8.6825784 29.49493784 14.19376523 29.3125 19.375 C29.28994141 20.58800781 29.26738281 21.80101562 29.24414062 23.05078125 C29.1853937 26.03512502 29.10329222 29.01692067 29 32 C26.36 32 23.72 32 21 32 C20.93941406 30.75863281 20.87882813 29.51726563 20.81640625 28.23828125 C20.73196377 26.59634423 20.64731764 24.95441768 20.5625 23.3125 C20.52318359 22.49587891 20.48386719 21.67925781 20.44335938 20.83789062 C20.23101997 16.80344189 19.95552078 12.94252691 19 9 C16.12635209 8.58253392 16.12635209 8.58253392 13 9 C9.31970205 13.30525421 9.46144256 17.92077918 9.3125 23.3125 C9.27833984 24.14845703 9.24417969 24.98441406 9.20898438 25.84570312 C9.12694539 27.89667772 9.0617849 29.94831538 9 32 C6.03 32 3.06 32 0 32 C0 21.44 0 10.88 0 0 Z " fill="#0B92C7" transform="translate(730,760)"/>
<path d="M0 0 C0 3.3 0 6.6 0 10 C-3.80859375 10.68359375 -3.80859375 10.68359375 -7.6171875 11.3671875 C-10.16505988 11.83044703 -10.16505988 11.83044703 -12 14 C-12 15.32 -12 16.64 -12 18 C-6.72 18.33 -1.44 18.66 4 19 C4 21.97 4 24.94 4 28 C-6.56 28 -17.12 28 -28 28 C-28 25.03 -28 22.06 -28 19 C-26.02 19 -24.04 19 -22 19 C-22.0928125 17.1746875 -22.0928125 17.1746875 -22.1875 15.3125 C-22.17357898 11.36589062 -21.53231493 9.14356337 -19 6 C-13.1672389 0.48252328 -7.70304481 -0.26562223 0 0 Z " fill="#A3CE79" transform="translate(875,439)"/>
<path d="M0 0 C1.640625 0.8125 1.640625 0.8125 3.890625 2.3125 C2.900625 4.6225 1.910625 6.9325 0.890625 9.3125 C-0.1303125 8.8175 -0.1303125 8.8175 -1.171875 8.3125 C-4.61777738 7.13942685 -7.49334922 7.17069507 -11.109375 7.3125 C-11.109375 8.3025 -11.109375 9.2925 -11.109375 10.3125 C-10.51769531 10.42207031 -9.92601562 10.53164063 -9.31640625 10.64453125 C-4.73011701 11.56478178 -0.92722984 12.44910887 2.890625 15.3125 C4.61433274 18.75991547 4.39369172 22.54285339 3.890625 26.3125 C2.01441887 28.81410818 0.65171197 29.93195652 -2.109375 31.3125 C-9.85737615 31.97351828 -15.76229284 32.03590998 -22.109375 27.3125 C-21.119375 25.3325 -20.129375 23.3525 -19.109375 21.3125 C-17.84480469 21.67214844 -17.84480469 21.67214844 -16.5546875 22.0390625 C-15.45898438 22.33554687 -14.36328125 22.63203125 -13.234375 22.9375 C-12.14382813 23.23914063 -11.05328125 23.54078125 -9.9296875 23.8515625 C-8.99898437 24.00367188 -8.06828125 24.15578125 -7.109375 24.3125 C-6.449375 23.6525 -5.789375 22.9925 -5.109375 22.3125 C-5.109375 21.6525 -5.109375 20.9925 -5.109375 20.3125 C-6.32625 20.044375 -7.543125 19.77625 -8.796875 19.5 C-13.36485067 18.36002731 -16.75325172 16.66862328 -20.109375 13.3125 C-20.73913336 10.23031724 -20.68446419 7.40094197 -20.109375 4.3125 C-15.35012249 -2.16537147 -7.39116653 -2.4089728 0 0 Z " fill="#0B91C7" transform="translate(533.109375,760.6875)"/>
<path d="M0 0 C2.97 0 5.94 0 9 0 C9 2.64 9 5.28 9 8 C11.64 8 14.28 8 17 8 C17 10.64 17 13.28 17 16 C14.36 16 11.72 16 9 16 C9.33 20.95 9.66 25.9 10 31 C12.31 31 14.62 31 17 31 C17.09765625 37.15234375 17.09765625 37.15234375 17 39 C15.19824298 40.80175702 12.62265322 40.29844137 10.1875 40.375 C9.12917969 40.42398438 8.07085938 40.47296875 6.98046875 40.5234375 C4 40 4 40 1.62890625 38.08984375 C-0.66943612 33.73015834 -0.43784114 30.03163403 -0.25 25.1875 C-0.23195313 24.30384766 -0.21390625 23.42019531 -0.1953125 22.50976562 C-0.14838513 20.33937457 -0.07664731 18.16954481 0 16 C-1.32 16 -2.64 16 -4 16 C-4 13.36 -4 10.72 -4 8 C-2.68 8 -1.36 8 0 8 C0 5.36 0 2.72 0 0 Z " fill="#0C91C6" transform="translate(597,752)"/>
<path d="M0 0 C2.97 0 5.94 0 9 0 C9 2.64 9 5.28 9 8 C11.64 8 14.28 8 17 8 C17 10.64 17 13.28 17 16 C14.36 16 11.72 16 9 16 C9.33 20.95 9.66 25.9 10 31 C12.31 31 14.62 31 17 31 C17 33.64 17 36.28 17 39 C14.44909127 40.27545437 12.47334154 40.27572804 9.625 40.375 C8.66851563 40.42398438 7.71203125 40.47296875 6.7265625 40.5234375 C4 40 4 40 1.6640625 38.08984375 C-0.68286672 33.73204794 -0.43852998 30.04939803 -0.25 25.1875 C-0.23195313 24.30384766 -0.21390625 23.42019531 -0.1953125 22.50976562 C-0.14838513 20.33937457 -0.07664731 18.16954481 0 16 C-1.32 16 -2.64 16 -4 16 C-4 13.36 -4 10.72 -4 8 C-2.68 8 -1.36 8 0 8 C0 5.36 0 2.72 0 0 Z " fill="#0D91C6" transform="translate(891,752)"/>
<path d="M0 0 C2.97 0 5.94 0 9 0 C9 2.64 9 5.28 9 8 C11.64 8 14.28 8 17 8 C17 10.64 17 13.28 17 16 C14.36 16 11.72 16 9 16 C9.33 21.28 9.66 26.56 10 32 C13.465 31.505 13.465 31.505 17 31 C17.09765625 37.15234375 17.09765625 37.15234375 17 39 C15.27415266 40.72584734 13.03790633 40.2533507 10.6875 40.3125 C5.39291288 40.27129699 5.39291288 40.27129699 2.375 38.1875 C0.41516849 35.06958624 -0.12477138 32.59459364 -0.09765625 28.98828125 C-0.09282227 27.85229492 -0.09282227 27.85229492 -0.08789062 26.69335938 C-0.07951172 25.90767578 -0.07113281 25.12199219 -0.0625 24.3125 C-0.05798828 23.51521484 -0.05347656 22.71792969 -0.04882812 21.89648438 C-0.0370585 19.93095743 -0.01912348 17.96546915 0 16 C-0.99 16 -1.98 16 -3 16 C-3 13.36 -3 10.72 -3 8 C-2.01 8 -1.02 8 0 8 C0 5.36 0 2.72 0 0 Z " fill="#0C91C6" transform="translate(654,752)"/>
<path d="M0 0 C2.97 0 5.94 0 9 0 C9.33 0.99 9.66 1.98 10 3 C10.556875 2.505 11.11375 2.01 11.6875 1.5 C14.38162983 -0.24754367 15.85375007 -0.26218749 19 0 C19 2.97 19 5.94 19 9 C17.6078125 9.5878125 17.6078125 9.5878125 16.1875 10.1875 C12.58525433 12.23583578 11.73006038 13.29847546 10 17 C9.63774319 19.66853296 9.40199569 22.14041429 9.3125 24.8125 C9.27833984 25.50537109 9.24417969 26.19824219 9.20898438 26.91210938 C9.12713656 28.60752849 9.06187635 30.30373458 9 32 C6.03 32 3.06 32 0 32 C0 21.44 0 10.88 0 0 Z " fill="#0C91C7" transform="translate(947,760)"/>
<path d="M0 0 C0 2.64 0 5.28 0 8 C-3.3 8.66 -6.6 9.32 -10 10 C-10 11.65 -10 13.3 -10 15 C-5.38 15 -0.76 15 4 15 C4 17.64 4 20.28 4 23 C-4.91 23 -13.82 23 -23 23 C-23 20.36 -23 17.72 -23 15 C-21.35 15 -19.7 15 -18 15 C-18.103125 13.96875 -18.20625 12.9375 -18.3125 11.875 C-17.91787695 6.98167417 -16.50769968 5.35180192 -13 2 C-8.77975622 -0.50933414 -4.77685234 -0.1619272 0 0 Z " fill="#0D91C4" transform="translate(330,597)"/>
<path d="M0 0 C2.97 0 5.94 0 9 0 C9 14.19 9 28.38 9 43 C6.03 43 3.06 43 0 43 C0 28.81 0 14.62 0 0 Z " fill="#0C91C7" transform="translate(579,749)"/>
<path d="M0 0 C2.97 0 5.94 0 9 0 C9 14.19 9 28.38 9 43 C6.03 43 3.06 43 0 43 C0 28.81 0 14.62 0 0 Z " fill="#0B91C8" transform="translate(338,749)"/>
<path d="M0 0 C2.97 0 5.94 0 9 0 C9 10.56 9 21.12 9 32 C6.03 32 3.06 32 0 32 C0 21.44 0 10.88 0 0 Z " fill="#0D91C6" transform="translate(677,760)"/>
<path d="M0 0 C2.97 0 5.94 0 9 0 C9 10.56 9 21.12 9 32 C6.03 32 3.06 32 0 32 C0 21.44 0 10.88 0 0 Z " fill="#0D90C7" transform="translate(321,760)"/>
<path d="M0 0 C2.23918419 1.8057937 2.84945187 3.08353828 3.3125 5.90234375 C3.52133602 9.40687323 3.32891469 11.45180884 1.5 14.5 C-2.03588973 16.62153384 -4.97901723 16.791013 -9 16 C-11.5 14.5 -11.5 14.5 -13 12 C-13.6932981 8.11115549 -13.57095716 5.06034902 -11.6875 1.5625 C-8.04021759 -1.81461334 -4.54561327 -1.05523165 0 0 Z " fill="#A4CD79" transform="translate(655,466)"/>
<path d="M0 0 C2.23918419 1.8057937 2.84945187 3.08353828 3.3125 5.90234375 C3.52133602 9.40687323 3.32891469 11.45180884 1.5 14.5 C-2.02309336 16.61385602 -4.99667231 16.9352036 -9 16 C-12.2883921 13.28707652 -12.90851499 11.65183071 -13.5 7.4375 C-12.9257958 3.48984615 -12.11700276 2.38359035 -9 0 C-5.8168485 -1.59157575 -3.38676935 -0.77242108 0 0 Z " fill="#A4CD79" transform="translate(674,466)"/>
<path d="M0 0 C1.8125 1.125 1.8125 1.125 3 3 C3.5 6.4375 3.5 6.4375 3 10 C0.875 12.5 0.875 12.5 -2 14 C-5.125 14.0625 -5.125 14.0625 -8 13 C-10.4970475 10.18075282 -11 8.64275568 -11 4.875 C-10 2 -10 2 -7.75 0.0625 C-4.55083641 -1.17354048 -3.19537581 -1.17724372 0 0 Z " fill="#0B91C9" transform="translate(766,619)"/>
<path d="M0 0 C3 0.5625 3 0.5625 5.4375 2.625 C7.46887051 6.44397656 7.16377498 8.45049509 6 12.5625 C2.50875983 14.88999345 1.10777749 15.06549316 -3 14.5625 C-5.375 12.9375 -5.375 12.9375 -7 10.5625 C-7.61195145 6.8907913 -7.48706506 5.27436432 -5.375 2.1875 C-3 0.5625 -3 0.5625 0 0 Z " fill="#0992C8" transform="translate(159,702.4375)"/>
<path d="M0 0 C3 0.5625 3 0.5625 5.375 2.1875 C7.4753727 5.25727548 7.53293835 6.90806561 7 10.5625 C5.9375 12.9375 5.9375 12.9375 4 14.5625 C0.55964514 14.99254436 -1.84140473 15.25765716 -4.875 13.4375 C-6.51040601 10.71182332 -6.936318 8.74659977 -7 5.5625 C-5.05716059 1.98767549 -4.03959602 0.75742425 0 0 Z " fill="#0B91C6" transform="translate(143,702.4375)"/>
<path d="M0 0 C2.875 1.0625 2.875 1.0625 4.8125 3.25 C6.13937963 6.76232845 6.10715824 8.52004507 4.875 12.0625 C2.20992902 14.35742223 0.77785284 15.10549299 -2.75 14.9375 C-5.43091626 13.94979401 -6.59109879 13.48444927 -8.125 11.0625 C-8.625 7.625 -8.625 7.625 -8.125 4.0625 C-5.46834042 0.93701814 -4.11787106 0.08235742 0 0 Z " fill="#0B91C8" transform="translate(465.125,617.9375)"/>
<path d="M0 0 C1.9375 1.625 1.9375 1.625 3 4 C3 7.5625 3 7.5625 2 11 C-0.1875 13.0625 -0.1875 13.0625 -3 14 C-6.1875 13.375 -6.1875 13.375 -9 12 C-11 9 -11 9 -10.875 5.5 C-10 2 -10 2 -8.3125 0 C-5.10029355 -1.38906225 -3.3063364 -1.05521374 0 0 Z " fill="#0B92C6" transform="translate(452,619)"/>
<path d="M0 0 C2.875 1.0625 2.875 1.0625 4.8125 3.25 C6.13937963 6.76232845 6.10715824 8.52004507 4.875 12.0625 C2.20992902 14.35742223 0.77785284 15.10549299 -2.75 14.9375 C-5.43091626 13.94979401 -6.59109879 13.48444927 -8.125 11.0625 C-8.625 7.625 -8.625 7.625 -8.125 4.0625 C-5.46834042 0.93701814 -4.11787106 0.08235742 0 0 Z " fill="#0C92C9" transform="translate(43.125,617.9375)"/>
<path d="M0 0 C2.46324069 3.69486103 2.38991688 5.63293092 2 10 C0.44223053 12.459636 -0.68165777 12.89388592 -3.4375 13.8125 C-6.35246093 14.02578982 -7.60288704 13.62661237 -10 12 C-11.50934217 8.98131566 -11.17510672 6.32702771 -11 3 C-7.87521953 -1.68717071 -5.14026869 -1.31240903 0 0 Z " fill="#0E92C8" transform="translate(751,619)"/>
<path d="M0 0 C2.45811625 3.68717438 2.31118164 5.64345704 2 10 C0 13 0 13 -2.875 13.8125 C-6.09732959 14.00583978 -7.39813344 13.83094313 -10 12 C-11.50934217 8.98131566 -11.17510672 6.32702771 -11 3 C-7.87521953 -1.68717071 -5.14026869 -1.31240903 0 0 Z " fill="#0C91C8" transform="translate(62,619)"/>
<path d="M0 0 C1.9375 1.0625 1.9375 1.0625 3 3 C3.49891602 6.92005446 3.55253414 9.11594538 1.4375 12.5 C-1 14 -1 14 -4.625 13.875 C-8 13 -8 13 -10 11 C-10.55239643 4.03980504 -10.55239643 4.03980504 -8.9375 1 C-5.86784865 -0.58433618 -3.38318857 -0.36248449 0 0 Z " fill="#0B91C7" transform="translate(702,619)"/>
<path d="M0 0 C2.45811625 3.68717438 2.31118164 5.64345704 2 10 C0 13 0 13 -2.875 13.8125 C-6.09732959 14.00583978 -7.39813344 13.83094313 -10 12 C-11.52491998 8.95016004 -11.23562548 6.3576631 -11 3 C-7.8590431 -1.28312304 -4.95334843 -1.23833711 0 0 Z " fill="#0A92C8" transform="translate(695,605)"/>
<path d="M0 0 C2.40346379 2.40346379 2.32083747 3.13900195 2.375 6.4375 C2.26642418 10.65159915 2.26642418 10.65159915 0.375 13.125 C-2.83916934 14.30916765 -4.73896333 13.97137263 -8 13 C-9.875 11.875 -9.875 11.875 -11 10 C-11.36248449 6.61681143 -11.58433618 4.13215135 -10 1.0625 C-6.64558048 -0.71953537 -3.76220155 -0.29858742 0 0 Z " fill="#0C92C9" transform="translate(687,619)"/>
<path d="M0 0 C2.97 0 5.94 0 9 0 C9 2.64 9 5.28 9 8 C6.03 8 3.06 8 0 8 C0 5.36 0 2.72 0 0 Z " fill="#0A92C8" transform="translate(677,749)"/>
<path d="M0 0 C2.97 0 5.94 0 9 0 C9 2.64 9 5.28 9 8 C6.03 8 3.06 8 0 8 C0 5.36 0 2.72 0 0 Z " fill="#0B92C8" transform="translate(321,749)"/>
<path d="M0 0 C1.25425781 0.01804687 2.50851563 0.03609375 3.80078125 0.0546875 C5.22970703 0.08949219 5.22970703 0.08949219 6.6875 0.125 C6.6875 0.455 6.6875 0.785 6.6875 1.125 C5.92824219 1.15078125 5.16898438 1.1765625 4.38671875 1.203125 C3.39285156 1.25984375 2.39898437 1.3165625 1.375 1.375 C0.38886719 1.42140625 -0.59726563 1.4678125 -1.61328125 1.515625 C-4.45190092 1.88470238 -4.45190092 1.88470238 -6.16796875 4.171875 C-6.54566406 4.81640625 -6.92335937 5.4609375 -7.3125 6.125 C-6.3225 6.785 -5.3325 7.445 -4.3125 8.125 C-6.2925 8.455 -8.2725 8.785 -10.3125 9.125 C-10.9725 6.815 -11.6325 4.505 -12.3125 2.125 C-8.09353134 0.07601713 -4.65877854 -0.08707997 0 0 Z " fill="#138FBF" transform="translate(245.3125,759.875)"/>
<path d="M0 0 C2.35716404 2.15454249 3.78966144 4.19719874 5.1875 7.0625 C5.53167969 7.75472656 5.87585938 8.44695312 6.23046875 9.16015625 C7 11 7 11 7 13 C6.01 13 5.02 13 4 13 C3.67 13.99 3.34 14.98 3 16 C2.49595192 13.89679937 1.99689492 11.79240209 1.5 9.6875 C1.08234375 7.92986328 1.08234375 7.92986328 0.65625 6.13671875 C0 3 0 3 0 0 Z " fill="#A6CB82" transform="translate(537,99)"/>
<path d="M0 0 C2.5625 2.0625 2.5625 2.0625 5 5 C5.0625 8.6875 5.0625 8.6875 4 12 C1.9375 13.4375 1.9375 13.4375 0 14 C1.875 9.25 1.875 9.25 3 7 C2.34 7 1.68 7 1 7 C0.67 4.69 0.34 2.38 0 0 Z " fill="#138EC1" transform="translate(161,703)"/>
<path d="M0 0 C-1.11375 0.6496875 -1.11375 0.6496875 -2.25 1.3125 C-4.61833926 2.76579909 -6.80924065 4.29607606 -9 6 C-9.66 5.67 -10.32 5.34 -11 5 C-4.74206349 -1.42261905 -4.74206349 -1.42261905 0 0 Z " fill="#1290C4" transform="translate(1076,49)"/>
<path d="M0 0 C1 3 1 3 0.22265625 5.04296875 C-0.16019531 5.75066406 -0.54304687 6.45835937 -0.9375 7.1875 C-1.31777344 7.90292969 -1.69804688 8.61835938 -2.08984375 9.35546875 C-2.54037109 10.16951172 -2.54037109 10.16951172 -3 11 C-3.66 10.67 -4.32 10.34 -5 10 C-3.33333333 6.66666667 -1.66666667 3.33333333 0 0 Z " fill="#A6CB82" transform="translate(701,144)"/>
</svg>
